<svg width="834" height="213" viewBox="0 0 834 213" fill="none" xmlns="http://www.w3.org/2000/svg">
<path d="M125 212.25H64C42.1667 212.25 26 206.583 15.5 195.25C5.16667 183.917 4.61936e-07 169.25 4.61936e-07 151.25V81C4.61936e-07 71.8333 1.33333 63.9167 4 57.25C6.66667 50.4167 10.5833 44.75 15.75 40.25L48.25 13C53.4167 8.66665 60 5.41666 68 3.25C76 1.08333 85.4167 -4.76837e-06 96.25 -4.76837e-06H157.25C161.25 -4.76837e-06 164.167 0.91666 166 2.74999C167.833 4.58333 168.75 7.5 168.75 11.5V41.75C168.75 43.9167 168.417 45.75 167.75 47.25C167.25 48.75 166.417 50 165.25 51L132.75 78C132.083 78.6667 131 79.25 129.5 79.75C128.167 80.25 126.667 80.5 125 80.5H94.25V122.75C94.25 126.25 95.3333 128.75 97.5 130.25C99.6667 131.583 102.833 132.25 107 132.25H157.25C161.25 132.25 164.167 133.167 166 135C167.833 136.833 168.75 139.75 168.75 143.75V173.5C168.75 175.667 168.417 177.5 167.75 179C167.25 180.5 166.417 181.75 165.25 182.75L132.75 209.75C132.083 210.417 131 211 129.5 211.5C128.167 212 126.667 212.25 125 212.25ZM157.25 182.5C160.417 182.5 162.667 181.833 164 180.5C165.5 179 166.25 176.667 166.25 173.5V143.75C166.25 140.583 165.5 138.333 164 137C162.667 135.5 160.417 134.75 157.25 134.75H107C101.833 134.75 98 133.833 95.5 132C93 130 91.75 126.917 91.75 122.75V63.25C91.75 59.0833 93 56 95.5 54C98 51.8333 101.833 50.75 107 50.75H157.25C160.417 50.75 162.667 50.0833 164 48.75C165.5 47.25 166.25 44.9167 166.25 41.75V11.5C166.25 8.33333 165.5 6.08333 164 4.74999C162.667 3.24999 160.417 2.49999 157.25 2.49999H96.25C75.4167 2.49999 59.9167 6.74999 49.75 15.25C39.75 23.5833 34.75 36.4167 34.75 53.75V131.5C34.75 148.833 39.75 161.667 49.75 170C59.9167 178.333 75.4167 182.5 96.25 182.5H157.25ZM143.5 157.5V160H101.75C85.5833 160 74.8333 157.5 69.5 152.5C64.3333 147.5 61.75 139.25 61.75 127.75V57.75C61.75 45.9167 64.4167 37.5 69.75 32.5C75.0833 27.5 85.75 25 101.75 25H143.5V27.5H101.75C87.0833 27.5 77.1667 29.8333 72 34.5C66.8333 39 64.25 46.75 64.25 57.75V127.75C64.25 138.583 66.75 146.25 71.75 150.75C76.75 155.25 86.75 157.5 101.75 157.5H143.5ZM266.385 160V25H268.885V91.25H364.885V25H367.385V160H364.885V93.75H268.885V160H266.385ZM287.135 182.5C290.301 182.5 292.551 181.833 293.885 180.5C295.385 179 296.135 176.667 296.135 173.5V118H337.885V173.5C337.885 176.667 338.551 179 339.885 180.5C341.385 181.833 343.718 182.5 346.885 182.5H385.635C388.801 182.5 391.051 181.833 392.385 180.5C393.885 179 394.635 176.667 394.635 173.5V11.5C394.635 8.33333 393.885 6.08333 392.385 4.74999C391.051 3.24999 388.801 2.49999 385.635 2.49999H346.885C343.718 2.49999 341.385 3.24999 339.885 4.74999C338.551 6.08333 337.885 8.33333 337.885 11.5V65.75H296.135V11.5C296.135 8.33333 295.385 6.08333 293.885 4.74999C292.551 3.24999 290.301 2.49999 287.135 2.49999H248.385C245.218 2.49999 242.885 3.24999 241.385 4.74999C240.051 6.08333 239.385 8.33333 239.385 11.5V173.5C239.385 176.667 240.051 179 241.385 180.5C242.885 181.833 245.218 182.5 248.385 182.5H287.135ZM295.135 182.75L262.635 209.75C261.968 210.417 260.885 211 259.385 211.5C258.051 212 256.551 212.25 254.885 212.25H216.135C212.135 212.25 209.218 211.333 207.385 209.5C205.551 207.667 204.635 204.75 204.635 200.75V38.75C204.635 36.5833 204.885 34.75 205.385 33.25C206.051 31.75 206.968 30.5 208.135 29.5L240.385 2.25C241.218 1.58333 242.301 1.08332 243.635 0.749986C245.135 0.249992 246.718 -4.76837e-06 248.385 -4.76837e-06H287.135C291.135 -4.76837e-06 294.051 0.91666 295.885 2.74999C297.718 4.58333 298.635 7.5 298.635 11.5V63.25H303.135V38.75C303.135 36.5833 303.385 34.75 303.885 33.25C304.551 31.75 305.468 30.5 306.635 29.5L338.885 2.25C339.718 1.58333 340.801 1.08332 342.135 0.749986C343.635 0.249992 345.218 -4.76837e-06 346.885 -4.76837e-06H385.635C389.635 -4.76837e-06 392.551 0.91666 394.385 2.74999C396.218 4.58333 397.135 7.5 397.135 11.5V173.5C397.135 175.667 396.801 177.5 396.135 179C395.635 180.5 394.801 181.75 393.635 182.75L361.135 209.75C360.468 210.417 359.385 211 357.885 211.5C356.551 212 355.051 212.25 353.385 212.25H314.635C310.635 212.25 307.718 211.333 305.885 209.5C304.051 207.667 303.135 204.75 303.135 200.75V147.75H298.635V173.5C298.635 175.667 298.301 177.5 297.635 179C297.135 180.5 296.301 181.75 295.135 182.75ZM499.479 106.75V114.5H596.979V106.75C596.979 102.25 596.562 98.0833 595.729 94.25C595.062 90.4167 594.145 86.8333 592.979 83.5L575.729 42.75C573.895 38.4167 571.979 34.8333 569.979 32C567.979 29 564.645 27.5 559.979 27.5H535.479C530.479 27.5 526.979 29 524.979 32C522.979 34.8333 521.145 38.3333 519.479 42.5L503.479 83.5C502.312 86.8333 501.312 90.4167 500.479 94.25C499.812 98.0833 499.479 102.25 499.479 106.75ZM539.479 55C540.145 53.5 540.812 52.4167 541.479 51.75C542.312 51.0833 543.229 50.75 544.229 50.75H550.479C551.479 50.75 552.312 51.0833 552.979 51.75C553.812 52.4167 554.562 53.5 555.229 55L566.979 93H527.729L539.479 55ZM596.979 160V117H499.479V160H496.979V106.75C496.979 102.083 497.312 97.8333 497.979 94C498.812 90 499.895 86.1667 501.229 82.5L517.229 41.5C519.062 36.8333 521.145 32.9167 523.479 29.75C525.812 26.5833 529.812 25 535.479 25H559.979C565.479 25 569.312 26.5833 571.479 29.75C573.812 32.9167 575.979 36.9167 577.979 41.75L595.229 82.5C596.562 86.1667 597.562 90 598.229 94C599.062 97.8333 599.479 102.083 599.479 106.75V160H596.979ZM525.229 173.5V138.5H569.479V173.5C569.479 176.667 570.229 179 571.729 180.5C573.395 181.833 575.895 182.5 579.229 182.5H616.979C620.145 182.5 622.395 181.833 623.729 180.5C625.229 179 625.979 176.667 625.979 173.5V107.5C625.979 102.5 625.145 96.75 623.479 90.25C621.979 83.75 619.562 76.1667 616.229 67.5L594.479 10.75C593.479 7.91665 591.895 5.83332 589.729 4.5C587.729 3.16666 585.145 2.49999 581.979 2.49999H514.729C511.395 2.49999 508.645 3.16666 506.479 4.5C504.479 5.83332 502.979 7.91665 501.979 10.75L480.229 67.5C476.895 76.1667 474.395 83.75 472.729 90.25C471.229 96.75 470.479 102.5 470.479 107.5V173.5C470.479 176.667 471.145 179 472.479 180.5C473.979 181.833 476.312 182.5 479.479 182.5H516.229C519.395 182.5 521.645 181.833 522.979 180.5C524.479 179 525.229 176.667 525.229 173.5ZM491.729 209.75C491.062 210.417 489.979 211 488.479 211.5C487.145 212 485.645 212.25 483.979 212.25H447.229C443.229 212.25 440.312 211.333 438.479 209.5C436.645 207.667 435.729 204.75 435.729 200.75V134.75C435.729 129.583 436.479 123.75 437.979 117.25C439.645 110.583 442.229 102.75 445.729 93.75L467.229 37.25C467.729 35.75 468.312 34.5 468.979 33.5C469.812 32.3333 470.645 31.3333 471.479 30.5L471.729 30.25L503.729 3.49999C505.062 2.33332 506.645 1.49999 508.479 0.999997C510.312 0.333329 512.395 -4.76837e-06 514.729 -4.76837e-06H581.979C585.812 -4.76837e-06 588.895 0.833328 591.229 2.49999C593.729 3.99999 595.562 6.41666 596.729 9.74999L618.479 66.5C621.979 75.5 624.479 83.3333 625.979 90C627.645 96.5 628.479 102.333 628.479 107.5V173.5C628.479 175.667 628.145 177.5 627.479 179C626.979 180.5 626.145 181.75 624.979 182.75L592.479 209.75C591.812 210.417 590.729 211 589.229 211.5C587.895 212 586.395 212.25 584.729 212.25H546.979C542.812 212.25 539.729 211.25 537.729 209.25C535.729 207.417 534.729 204.583 534.729 200.75V168.25H527.729V173.5C527.729 175.667 527.395 177.5 526.729 179C526.229 180.5 525.395 181.75 524.229 182.75L491.729 209.75ZM744.488 212.25H703.988C699.988 212.25 697.072 211.333 695.238 209.5C693.405 207.667 692.488 204.75 692.488 200.75V80.5H658.238C654.238 80.5 651.322 79.5833 649.488 77.75C647.655 75.9167 646.738 73 646.738 69V38.75C646.738 36.5833 646.988 34.75 647.488 33.25C648.155 31.75 649.072 30.5 650.238 29.5L682.488 2.25C683.322 1.58333 684.405 1.08332 685.738 0.749986C687.238 0.249992 688.822 -4.76837e-06 690.488 -4.76837e-06H822.488C826.488 -4.76837e-06 829.405 0.91666 831.238 2.74999C833.072 4.58333 833.988 7.5 833.988 11.5V41.75C833.988 43.9167 833.655 45.75 832.988 47.25C832.488 48.75 831.655 50 830.488 51L797.988 78C797.322 78.6667 796.238 79.25 794.738 79.75C793.405 80.25 791.905 80.5 790.238 80.5H788.238V173.5C788.238 175.667 787.905 177.5 787.238 179C786.738 180.5 785.905 181.75 784.738 182.75L752.238 209.75C751.572 210.417 750.488 211 748.988 211.5C747.655 212 746.155 212.25 744.488 212.25ZM776.738 182.5C779.905 182.5 782.155 181.833 783.488 180.5C784.988 179 785.738 176.667 785.738 173.5V50.75H822.488C825.655 50.75 827.905 50.0833 829.238 48.75C830.738 47.25 831.488 44.9167 831.488 41.75V11.5C831.488 8.33333 830.738 6.08333 829.238 4.74999C827.905 3.24999 825.655 2.49999 822.488 2.49999H690.488C687.322 2.49999 684.988 3.24999 683.488 4.74999C682.155 6.08333 681.488 8.33333 681.488 11.5V41.75C681.488 44.9167 682.155 47.25 683.488 48.75C684.988 50.0833 687.322 50.75 690.488 50.75H727.238V173.5C727.238 176.667 727.905 179 729.238 180.5C730.738 181.833 733.072 182.5 736.238 182.5H776.738ZM755.238 160V27.5H703.988V25H808.988V27.5H757.738V160H755.238Z" fill="black"/>
</svg>
