<svg width="1508" height="213" viewBox="0 0 1508 213" fill="none" xmlns="http://www.w3.org/2000/svg">
<path d="M138.75 212.25H11.5C7.5 212.25 4.58333 211.333 2.75 209.5C0.916667 207.667 4.47035e-07 204.75 4.47035e-07 200.75V38.75C4.47035e-07 36.5833 0.25 34.75 0.75 33.25C1.41667 31.75 2.33333 30.5 3.5 29.5L35.75 2.25C36.5833 1.58333 37.6667 1.08332 39 0.749986C40.5 0.249992 42.0833 -4.76837e-06 43.75 -4.76837e-06H82.5C86.5 -4.76837e-06 89.4167 0.91666 91.25 2.74999C93.0833 4.58333 94 7.5 94 11.5V113.25L94.5 112.75L126.75 85.5C127.583 84.8333 128.667 84.3333 130 84C131.5 83.5 133.083 83.25 134.75 83.25H171C175 83.25 177.917 84.1667 179.75 86C181.583 87.8333 182.5 90.75 182.5 94.75V173.5C182.5 175.667 182.167 177.5 181.5 179C181 180.5 180.167 181.75 179 182.75L146.5 209.75C145.833 210.417 144.75 211 143.25 211.5C141.917 212 140.417 212.25 138.75 212.25ZM171 182.5C174.167 182.5 176.417 181.833 177.75 180.5C179.25 179 180 176.667 180 173.5V94.75C180 91.5833 179.25 89.3333 177.75 88C176.417 86.5 174.167 85.75 171 85.75H134.75C131.583 85.75 129.25 86.5 127.75 88C126.417 89.3333 125.75 91.5833 125.75 94.75V135.25H91.5V11.5C91.5 8.33333 90.75 6.08333 89.25 4.74999C87.9167 3.24999 85.6667 2.49999 82.5 2.49999H43.75C40.5833 2.49999 38.25 3.24999 36.75 4.74999C35.4167 6.08333 34.75 8.33333 34.75 11.5V173.5C34.75 176.667 35.4167 179 36.75 180.5C38.25 181.833 40.5833 182.5 43.75 182.5H171ZM62 160V25H64.5V157.5H151.5V108.25H154V160H62ZM332.73 212.25H226.23C222.23 212.25 219.314 211.333 217.48 209.5C215.647 207.667 214.73 204.75 214.73 200.75V171C214.73 168.833 214.98 167 215.48 165.5C216.147 164 217.064 162.75 218.23 161.75L248.48 136.25V80.5H226.23C222.23 80.5 219.314 79.5833 217.48 77.75C215.647 75.9167 214.73 73 214.73 69V38.75C214.73 36.5833 214.98 34.75 215.48 33.25C216.147 31.75 217.064 30.5 218.23 29.5L250.48 2.25C251.314 1.58333 252.397 1.08332 253.73 0.749986C255.23 0.249992 256.814 -4.76837e-06 258.48 -4.76837e-06H364.98C368.98 -4.76837e-06 371.897 0.91666 373.73 2.74999C375.564 4.58333 376.48 7.5 376.48 11.5V41.75C376.48 43.9167 376.147 45.75 375.48 47.25C374.98 48.75 374.147 50 372.98 51L343.23 76V132.25H364.98C368.98 132.25 371.897 133.167 373.73 135C375.564 136.833 376.48 139.75 376.48 143.75V173.5C376.48 175.667 376.147 177.5 375.48 179C374.98 180.5 374.147 181.75 372.98 182.75L340.48 209.75C339.814 210.417 338.73 211 337.23 211.5C335.897 212 334.397 212.25 332.73 212.25ZM258.48 182.5H364.98C368.147 182.5 370.397 181.833 371.73 180.5C373.23 179 373.98 176.667 373.98 173.5V143.75C373.98 140.583 373.23 138.333 371.73 137C370.397 135.5 368.147 134.75 364.98 134.75H340.73V50.75H364.98C368.147 50.75 370.397 50.0833 371.73 48.75C373.23 47.25 373.98 44.9167 373.98 41.75V11.5C373.98 8.33333 373.23 6.08333 371.73 4.74999C370.397 3.24999 368.147 2.49999 364.98 2.49999H258.48C255.314 2.49999 252.98 3.24999 251.48 4.74999C250.147 6.08333 249.48 8.33333 249.48 11.5V41.75C249.48 44.9167 250.147 47.25 251.48 48.75C252.98 50.0833 255.314 50.75 258.48 50.75H283.23V134.75H258.48C255.314 134.75 252.98 135.5 251.48 137C250.147 138.333 249.48 140.583 249.48 143.75V173.5C249.48 176.667 250.147 179 251.48 180.5C252.98 181.833 255.314 182.5 258.48 182.5ZM351.48 160H271.98V157.5H310.73V27.5H271.98V25H351.48V27.5H313.23V157.5H351.48V160ZM426.5 212.25C422.5 212.25 419.583 211.333 417.75 209.5C415.917 207.667 415 204.75 415 200.75V38.75C415 36.5833 415.25 34.75 415.75 33.25C416.417 31.75 417.333 30.5 418.5 29.5L450.75 2.25C451.583 1.58333 452.667 1.08332 454 0.749986C455.5 0.249992 457.083 -4.76837e-06 458.75 -4.76837e-06H538.5C555.833 -4.76837e-06 568.583 3.41666 576.75 10.25C584.917 16.9167 589 27.0833 589 40.75V52.75C589 58.5833 588.167 63.5833 586.5 67.75C585 71.9167 582.667 75.25 579.5 77.75L578.75 78.25C587.75 80.25 594.5 84.5833 599 91.25C603.5 97.75 605.75 106.833 605.75 118.5V141.5C605.75 149 604.667 155.5 602.5 161C600.333 166.333 597.083 170.833 592.75 174.5L560.5 201.75C556.333 205.25 551.083 207.833 544.75 209.5C538.417 211.333 531 212.25 522.5 212.25H426.5ZM554.75 182.5C571.25 182.5 583.417 179.167 591.25 172.5C599.25 165.833 603.25 155.5 603.25 141.5V118.5C603.25 106.333 600.667 97.0833 595.5 90.75C590.333 84.4167 582.417 80.75 571.75 79.75C576.75 77.5833 580.417 74.3333 582.75 70C585.25 65.5 586.5 59.75 586.5 52.75V40.75C586.5 27.75 582.583 18.1667 574.75 12C566.917 5.66666 554.833 2.49999 538.5 2.49999H458.75C455.583 2.49999 453.25 3.24999 451.75 4.74999C450.417 6.08333 449.75 8.33333 449.75 11.5V173.5C449.75 176.667 450.417 179 451.75 180.5C453.25 181.833 455.583 182.5 458.75 182.5H554.75ZM544.75 160H477.5V25H528.25C535.083 25 540.667 25.75 545 27.25C549.333 28.5833 552.667 30.5 555 33C557.333 35.3333 558.917 38.0833 559.75 41.25C560.583 44.4167 561 47.8333 561 51.5V67.5C561 72.5 560.083 77.0833 558.25 81.25C556.583 85.4167 552.167 88.4167 545 90.25C551.833 90.25 557.417 91 561.75 92.5C566.083 93.8333 569.417 95.8333 571.75 98.5C574.083 101 575.583 104 576.25 107.5C577.083 111 577.5 114.833 577.5 119V135C577.5 138.667 577.083 142.083 576.25 145.25C575.417 148.25 573.833 150.833 571.5 153C569.333 155.167 566.083 156.917 561.75 158.25C557.417 159.417 551.75 160 544.75 160ZM528.25 27.5H480V90.25H528.25C535.083 90.25 540.5 89.6667 544.5 88.5C548.5 87.1667 551.5 85.5 553.5 83.5C555.667 81.3333 557 78.9167 557.5 76.25C558.167 73.4167 558.5 70.5 558.5 67.5V51.5C558.5 44.8333 556.583 39.1667 552.75 34.5C548.917 29.8333 540.75 27.5 528.25 27.5ZM506 45H527.25C530.417 45 532.75 45.8333 534.25 47.5C535.917 49.1667 536.75 51.6667 536.75 55V62C536.75 65.3333 535.917 67.8333 534.25 69.5C532.75 71.1667 530.417 72 527.25 72H506V45ZM545 92.75H480V157.5H544.75C557.25 157.5 565.417 155.5 569.25 151.5C573.083 147.333 575 141.833 575 135V119C575 111.5 573.083 105.25 569.25 100.25C565.583 95.25 557.5 92.75 545 92.75ZM506 110.5H538.5C541.667 110.5 544 111.333 545.5 113C547.167 114.5 548 116.917 548 120.25V130C548 133.333 547.167 135.833 545.5 137.5C544 139.167 541.667 140 538.5 140H506V110.5ZM760.049 27.5H705.549V99.75H760.049C770.382 99.75 777.299 97.25 780.799 92.25C784.299 87.25 786.049 80.1667 786.049 71V53.5C786.049 45.8333 783.882 39.5833 779.549 34.75C775.382 29.9167 768.882 27.5 760.049 27.5ZM732.549 47.5H751.299C755.632 47.5 758.549 48.6667 760.049 51C761.549 53.1667 762.299 55.9167 762.299 59.25V67.75C762.299 71.0833 761.549 73.9167 760.049 76.25C758.549 78.4167 755.632 79.5 751.299 79.5H732.549V47.5ZM705.549 160H703.049V25H760.049C769.715 25 776.882 27.75 781.549 33.25C786.215 38.5833 788.549 45.3333 788.549 53.5V70.75C788.549 78.4167 787.549 84.75 785.549 89.75C783.549 94.5833 779.549 97.9167 773.549 99.75H776.299C786.466 99.75 794.049 102.083 799.049 106.75C804.049 111.25 806.549 117.833 806.549 126.5V160H804.049V126.5C804.049 118.333 801.799 112.25 797.299 108.25C792.799 104.083 785.799 102 776.299 102H705.549V160ZM723.549 182.5C726.715 182.5 728.965 181.833 730.299 180.5C731.799 179 732.549 176.667 732.549 173.5V124.5H767.549C771.049 124.5 773.466 125.417 774.799 127.25C776.299 128.917 777.049 131.583 777.049 135.25V173.5C777.049 176.667 777.715 179 779.049 180.5C780.549 181.833 782.882 182.5 786.049 182.5H824.799C827.966 182.5 830.216 181.833 831.549 180.5C833.049 179 833.799 176.667 833.799 173.5V120.5C833.799 110 830.966 101.583 825.299 95.25C819.799 88.9167 812.549 85.25 803.549 84.25C808.715 82.0833 812.299 78.5833 814.299 73.75C816.466 68.75 817.549 62.75 817.549 55.75V44.25C817.549 31.9167 813.966 21.9167 806.799 14.25C799.799 6.41666 786.966 2.49999 768.299 2.49999H685.049C681.882 2.49999 679.549 3.24999 678.049 4.74999C676.715 6.08333 676.049 8.33333 676.049 11.5V173.5C676.049 176.667 676.715 179 678.049 180.5C679.549 181.833 681.882 182.5 685.049 182.5H723.549ZM731.549 182.75L699.049 209.75C698.382 210.417 697.299 211 695.799 211.5C694.465 212 692.965 212.25 691.299 212.25H652.799C648.799 212.25 645.882 211.333 644.049 209.5C642.215 207.667 641.299 204.75 641.299 200.75V38.75C641.299 36.5833 641.549 34.75 642.049 33.25C642.715 31.75 643.632 30.5 644.799 29.5L677.049 2.25C677.882 1.58333 678.965 1.08332 680.299 0.749986C681.799 0.249992 683.382 -4.76837e-06 685.049 -4.76837e-06H768.299C788.132 -4.76837e-06 801.716 4.16666 809.049 12.5C816.382 20.6667 820.049 31.25 820.049 44.25V55.75C820.049 61.9167 819.299 67.3333 817.799 72C816.299 76.5 813.882 80.1667 810.549 83H810.299C818.132 85.1667 824.382 89.5 829.049 96C833.882 102.5 836.299 110.667 836.299 120.5V173.5C836.299 175.667 835.966 177.5 835.299 179C834.799 180.5 833.966 181.75 832.799 182.75L800.299 209.75C799.632 210.417 798.549 211 797.049 211.5C795.716 212 794.216 212.25 792.549 212.25H753.799C749.799 212.25 746.882 211.333 745.049 209.5C743.216 207.667 742.299 204.75 742.299 200.75V162.5C742.299 159.833 741.799 157.833 740.799 156.5C739.799 155 737.965 154.25 735.299 154.25H735.049V173.5C735.049 175.667 734.715 177.5 734.049 179C733.549 180.5 732.715 181.75 731.549 182.75ZM931.992 106.75V114.5H1029.49V106.75C1029.49 102.25 1029.08 98.0833 1028.24 94.25C1027.58 90.4167 1026.66 86.8333 1025.49 83.5L1008.24 42.75C1006.41 38.4167 1004.49 34.8333 1002.49 32C1000.49 29 997.159 27.5 992.492 27.5H967.992C962.992 27.5 959.492 29 957.492 32C955.492 34.8333 953.659 38.3333 951.992 42.5L935.992 83.5C934.826 86.8333 933.826 90.4167 932.992 94.25C932.326 98.0833 931.992 102.25 931.992 106.75ZM971.992 55C972.659 53.5 973.326 52.4167 973.992 51.75C974.826 51.0833 975.742 50.75 976.742 50.75H982.992C983.992 50.75 984.826 51.0833 985.492 51.75C986.326 52.4167 987.076 53.5 987.742 55L999.492 93H960.242L971.992 55ZM1029.49 160V117H931.992V160H929.492V106.75C929.492 102.083 929.826 97.8333 930.492 94C931.326 90 932.409 86.1667 933.742 82.5L949.742 41.5C951.576 36.8333 953.659 32.9167 955.992 29.75C958.326 26.5833 962.326 25 967.992 25H992.492C997.992 25 1001.83 26.5833 1003.99 29.75C1006.33 32.9167 1008.49 36.9167 1010.49 41.75L1027.74 82.5C1029.08 86.1667 1030.08 90 1030.74 94C1031.58 97.8333 1031.99 102.083 1031.99 106.75V160H1029.49ZM957.742 173.5V138.5H1001.99V173.5C1001.99 176.667 1002.74 179 1004.24 180.5C1005.91 181.833 1008.41 182.5 1011.74 182.5H1049.49C1052.66 182.5 1054.91 181.833 1056.24 180.5C1057.74 179 1058.49 176.667 1058.49 173.5V107.5C1058.49 102.5 1057.66 96.75 1055.99 90.25C1054.49 83.75 1052.08 76.1667 1048.74 67.5L1026.99 10.75C1025.99 7.91665 1024.41 5.83332 1022.24 4.5C1020.24 3.16666 1017.66 2.49999 1014.49 2.49999H947.242C943.909 2.49999 941.159 3.16666 938.992 4.5C936.992 5.83332 935.492 7.91665 934.492 10.75L912.742 67.5C909.409 76.1667 906.909 83.75 905.242 90.25C903.742 96.75 902.992 102.5 902.992 107.5V173.5C902.992 176.667 903.659 179 904.992 180.5C906.492 181.833 908.826 182.5 911.992 182.5H948.742C951.909 182.5 954.159 181.833 955.492 180.5C956.992 179 957.742 176.667 957.742 173.5ZM924.242 209.75C923.576 210.417 922.492 211 920.992 211.5C919.659 212 918.159 212.25 916.492 212.25H879.742C875.742 212.25 872.826 211.333 870.992 209.5C869.159 207.667 868.242 204.75 868.242 200.75V134.75C868.242 129.583 868.992 123.75 870.492 117.25C872.159 110.583 874.742 102.75 878.242 93.75L899.742 37.25C900.242 35.75 900.826 34.5 901.492 33.5C902.326 32.3333 903.159 31.3333 903.992 30.5L904.242 30.25L936.242 3.49999C937.576 2.33332 939.159 1.49999 940.992 0.999997C942.826 0.333329 944.909 -4.76837e-06 947.242 -4.76837e-06H1014.49C1018.33 -4.76837e-06 1021.41 0.833328 1023.74 2.49999C1026.24 3.99999 1028.08 6.41666 1029.24 9.74999L1050.99 66.5C1054.49 75.5 1056.99 83.3333 1058.49 90C1060.16 96.5 1060.99 102.333 1060.99 107.5V173.5C1060.99 175.667 1060.66 177.5 1059.99 179C1059.49 180.5 1058.66 181.75 1057.49 182.75L1024.99 209.75C1024.33 210.417 1023.24 211 1021.74 211.5C1020.41 212 1018.91 212.25 1017.24 212.25H979.492C975.326 212.25 972.242 211.25 970.242 209.25C968.242 207.417 967.242 204.583 967.242 200.75V168.25H960.242V173.5C960.242 175.667 959.909 177.5 959.242 179C958.742 180.5 957.909 181.75 956.742 182.75L924.242 209.75ZM1218.26 27.5H1163.76V99.75H1218.26C1228.6 99.75 1235.51 97.25 1239.01 92.25C1242.51 87.25 1244.26 80.1667 1244.26 71V53.5C1244.26 45.8333 1242.1 39.5833 1237.76 34.75C1233.6 29.9167 1227.1 27.5 1218.26 27.5ZM1190.76 47.5H1209.51C1213.85 47.5 1216.76 48.6667 1218.26 51C1219.76 53.1667 1220.51 55.9167 1220.51 59.25V67.75C1220.51 71.0833 1219.76 73.9167 1218.26 76.25C1216.76 78.4167 1213.85 79.5 1209.51 79.5H1190.76V47.5ZM1163.76 160H1161.26V25H1218.26C1227.93 25 1235.1 27.75 1239.76 33.25C1244.43 38.5833 1246.76 45.3333 1246.76 53.5V70.75C1246.76 78.4167 1245.76 84.75 1243.76 89.75C1241.76 94.5833 1237.76 97.9167 1231.76 99.75H1234.51C1244.68 99.75 1252.26 102.083 1257.26 106.75C1262.26 111.25 1264.76 117.833 1264.76 126.5V160H1262.26V126.5C1262.26 118.333 1260.01 112.25 1255.51 108.25C1251.01 104.083 1244.01 102 1234.51 102H1163.76V160ZM1181.76 182.5C1184.93 182.5 1187.18 181.833 1188.51 180.5C1190.01 179 1190.76 176.667 1190.76 173.5V124.5H1225.76C1229.26 124.5 1231.68 125.417 1233.01 127.25C1234.51 128.917 1235.26 131.583 1235.26 135.25V173.5C1235.26 176.667 1235.93 179 1237.26 180.5C1238.76 181.833 1241.1 182.5 1244.26 182.5H1283.01C1286.18 182.5 1288.43 181.833 1289.76 180.5C1291.26 179 1292.01 176.667 1292.01 173.5V120.5C1292.01 110 1289.18 101.583 1283.51 95.25C1278.01 88.9167 1270.76 85.25 1261.76 84.25C1266.93 82.0833 1270.51 78.5833 1272.51 73.75C1274.68 68.75 1275.76 62.75 1275.76 55.75V44.25C1275.76 31.9167 1272.18 21.9167 1265.01 14.25C1258.01 6.41666 1245.18 2.49999 1226.51 2.49999H1143.26C1140.1 2.49999 1137.76 3.24999 1136.26 4.74999C1134.93 6.08333 1134.26 8.33333 1134.26 11.5V173.5C1134.26 176.667 1134.93 179 1136.26 180.5C1137.76 181.833 1140.1 182.5 1143.26 182.5H1181.76ZM1189.76 182.75L1157.26 209.75C1156.6 210.417 1155.51 211 1154.01 211.5C1152.68 212 1151.18 212.25 1149.51 212.25H1111.01C1107.01 212.25 1104.1 211.333 1102.26 209.5C1100.43 207.667 1099.51 204.75 1099.51 200.75V38.75C1099.51 36.5833 1099.76 34.75 1100.26 33.25C1100.93 31.75 1101.85 30.5 1103.01 29.5L1135.26 2.25C1136.1 1.58333 1137.18 1.08332 1138.51 0.749986C1140.01 0.249992 1141.6 -4.76837e-06 1143.26 -4.76837e-06H1226.51C1246.35 -4.76837e-06 1259.93 4.16666 1267.26 12.5C1274.6 20.6667 1278.26 31.25 1278.26 44.25V55.75C1278.26 61.9167 1277.51 67.3333 1276.01 72C1274.51 76.5 1272.1 80.1667 1268.76 83H1268.51C1276.35 85.1667 1282.6 89.5 1287.26 96C1292.1 102.5 1294.51 110.667 1294.51 120.5V173.5C1294.51 175.667 1294.18 177.5 1293.51 179C1293.01 180.5 1292.18 181.75 1291.01 182.75L1258.51 209.75C1257.85 210.417 1256.76 211 1255.26 211.5C1253.93 212 1252.43 212.25 1250.76 212.25H1212.01C1208.01 212.25 1205.1 211.333 1203.26 209.5C1201.43 207.667 1200.51 204.75 1200.51 200.75V162.5C1200.51 159.833 1200.01 157.833 1199.01 156.5C1198.01 155 1196.18 154.25 1193.51 154.25H1193.26V173.5C1193.26 175.667 1192.93 177.5 1192.26 179C1191.76 180.5 1190.93 181.75 1189.76 182.75ZM1416.39 212.25H1375.89C1371.72 212.25 1368.72 211.333 1366.89 209.5C1365.22 207.667 1364.39 204.75 1364.39 200.75V169.5L1326.64 119C1322.64 113.667 1319.97 109 1318.64 105C1317.3 101 1316.64 94.9167 1316.64 86.75V38.75C1316.64 36.5833 1316.89 34.75 1317.39 33.25C1318.05 31.75 1318.97 30.5 1320.14 29.5L1352.39 2.25C1353.22 1.58333 1354.3 1.08332 1355.64 0.749986C1357.14 0.249992 1358.72 -4.76837e-06 1360.39 -4.76837e-06H1398.89C1402.89 -4.76837e-06 1405.8 0.91666 1407.64 2.74999C1409.47 4.58333 1410.39 7.5 1410.39 11.5V52.5C1410.39 54 1410.47 55.5 1410.64 57C1410.8 58.5 1411.3 60.0833 1412.14 61.75L1415.14 66V38.75C1415.14 36.5833 1415.39 34.75 1415.89 33.25C1416.55 31.75 1417.47 30.5 1418.64 29.5L1450.89 2.25C1451.72 1.58333 1452.8 1.08332 1454.14 0.749986C1455.64 0.249992 1457.22 -4.76837e-06 1458.89 -4.76837e-06H1496.14C1500.14 -4.76837e-06 1503.05 0.91666 1504.89 2.74999C1506.72 4.58333 1507.64 7.5 1507.64 11.5V59.5C1507.64 67.6667 1506.97 73.75 1505.64 77.75C1504.3 81.75 1501.64 86.4167 1497.64 91.75L1460.14 142.5V173.5C1460.14 175.667 1459.8 177.5 1459.14 179C1458.64 180.5 1457.8 181.75 1456.64 182.75L1424.14 209.75C1423.47 210.417 1422.39 211 1420.89 211.5C1419.55 212 1418.05 212.25 1416.39 212.25ZM1448.64 182.5C1451.8 182.5 1454.05 181.833 1455.39 180.5C1456.89 179 1457.64 176.667 1457.64 173.5V141.75L1495.64 90.25C1499.3 85.0833 1501.8 80.5833 1503.14 76.75C1504.47 72.9167 1505.14 67.1667 1505.14 59.5V11.5C1505.14 8.33333 1504.39 6.08333 1502.89 4.74999C1501.55 3.24999 1499.3 2.49999 1496.14 2.49999H1458.89C1455.72 2.49999 1453.39 3.24999 1451.89 4.74999C1450.55 6.08333 1449.89 8.33333 1449.89 11.5V52.5C1449.89 54.1667 1449.8 55.9167 1449.64 57.75C1449.47 59.5833 1448.8 61.3333 1447.64 63L1436.14 81C1435.3 82.5 1434.39 83.5833 1433.39 84.25C1432.55 84.9167 1431.47 85.25 1430.14 85.25H1427.64C1426.3 85.25 1425.14 84.9167 1424.14 84.25C1423.3 83.5833 1422.47 82.5 1421.64 81L1410.14 63C1408.97 61.3333 1408.3 59.5833 1408.14 57.75C1407.97 55.9167 1407.89 54.1667 1407.89 52.5V11.5C1407.89 8.33333 1407.14 6.08333 1405.64 4.74999C1404.3 3.24999 1402.05 2.49999 1398.89 2.49999H1360.39C1357.22 2.49999 1354.89 3.24999 1353.39 4.74999C1352.05 6.08333 1351.39 8.33333 1351.39 11.5V59.5C1351.39 67.1667 1351.97 72.9167 1353.14 76.75C1354.47 80.5833 1357.05 85.0833 1360.89 90.25L1399.14 141.5V173.5C1399.14 176.667 1399.8 179 1401.14 180.5C1402.64 181.833 1404.97 182.5 1408.14 182.5H1448.64ZM1431.39 117.25H1429.64V160H1427.14V117.25H1424.64C1420.97 117.25 1417.64 116.417 1414.64 114.75C1411.8 113.083 1409.05 110.417 1406.39 106.75L1382.14 73C1380.3 70.5 1379.22 67.5833 1378.89 64.25C1378.55 60.9167 1378.39 57.4167 1378.39 53.75V25H1380.89V53.75C1380.89 57.25 1381.05 60.5833 1381.39 63.75C1381.72 66.75 1382.72 69.5 1384.39 72L1408.64 105.75C1410.8 109.083 1413.3 111.417 1416.14 112.75C1418.97 114.083 1421.8 114.75 1424.64 114.75H1431.39C1434.55 114.75 1437.39 114.083 1439.89 112.75C1442.55 111.25 1445.14 108.917 1447.64 105.75L1472.64 72C1474.3 69.8333 1475.3 67.1667 1475.64 64C1475.97 60.6667 1476.14 57.25 1476.14 53.75V25H1478.64V53.75C1478.64 57.4167 1478.47 60.9167 1478.14 64.25C1477.97 67.4167 1476.89 70.3333 1474.89 73L1449.89 106.75C1447.22 110.417 1444.39 113.083 1441.39 114.75C1438.55 116.417 1435.22 117.25 1431.39 117.25Z" fill="black"/>
</svg>
