<svg width="1115" height="220" viewBox="0 0 1115 220" fill="none" xmlns="http://www.w3.org/2000/svg">
<path d="M122.75 90C125.75 90 127.917 89.3333 129.25 88C130.583 86.6667 132.667 83.8333 135.5 79.5L166 33C167 31.3333 168.083 30.25 169.25 29.75C170.583 29.0833 171.917 28.75 173.25 28.75H177.5C179.833 28.75 181.5 29.4167 182.5 30.75C183.667 31.9167 184.25 33.8333 184.25 36.5V163.75H181.75V36.5C181.75 35.1667 181.417 34 180.75 33C180.25 31.8333 179.167 31.25 177.5 31.25H173.75C172.583 31.25 171.583 31.4167 170.75 31.75C169.917 32.0833 169 33.0833 168 34.75L137.5 80.75C134.5 85.25 132.167 88.3333 130.5 90C129 91.6667 126.417 92.5 122.75 92.5C119.083 92.5 116.417 91.6667 114.75 90C113.25 88.3333 111 85.25 108 80.75L77.5 34.75C76.5 33.0833 75.5 32.0833 74.5 31.75C73.6667 31.4167 72.6667 31.25 71.5 31.25H67.75C66.0833 31.25 65 31.8333 64.5 33C64 34 63.75 35.1667 63.75 36.5V163.75H61.25V36.5C61.25 33.8333 61.75 31.9167 62.75 30.75C63.9167 29.4167 65.5833 28.75 67.75 28.75H72C73.3333 28.75 74.6667 29.0833 76 29.75C77.3333 30.25 78.5 31.3333 79.5 33L110 79.5C112.833 83.8333 114.917 86.6667 116.25 88C117.583 89.3333 119.75 90 122.75 90ZM81 186.25C84.1667 186.25 86.4167 185.583 87.75 184.25C89.25 182.75 90 180.417 90 177.25V89.25L104.75 116.5C106.25 119.333 108 121.417 110 122.75C112.167 123.917 114.833 124.5 118 124.5H128C131.167 124.5 133.75 123.917 135.75 122.75C137.917 121.417 139.75 119.333 141.25 116.5L156 89.25V177.25C156 180.417 156.667 182.75 158 184.25C159.5 185.583 161.833 186.25 165 186.25H203.5C206.667 186.25 208.917 185.583 210.25 184.25C211.75 182.75 212.5 180.417 212.5 177.25V15.25C212.5 12.0833 211.75 9.83333 210.25 8.49999C208.917 6.99999 206.667 6.24999 203.5 6.24999H163C160.333 6.24999 158.083 6.83332 156.25 7.99999C154.583 9.16666 153 11.0833 151.5 13.75L129.25 54.5C128.417 56 127.667 57.0833 127 57.75C126.5 58.4167 125.75 58.75 124.75 58.75H122.5C121.5 58.75 120.667 58.4167 120 57.75C119.5 57.0833 118.833 56 118 54.5L95.5 13.75C94 11.0833 92.3333 9.16666 90.5 7.99999C88.8333 6.83332 86.6667 6.24999 84 6.24999H43.75C40.5833 6.24999 38.25 6.99999 36.75 8.49999C35.4167 9.83333 34.75 12.0833 34.75 15.25V177.25C34.75 180.417 35.4167 182.75 36.75 184.25C38.25 185.583 40.5833 186.25 43.75 186.25H81ZM89 186.5L56.5 213.5C55.8333 214.167 54.75 214.75 53.25 215.25C51.9167 215.75 50.4167 216 48.75 216H11.5C7.5 216 4.58333 215.083 2.75 213.25C0.916667 211.417 4.47035e-07 208.5 4.47035e-07 204.5V42.5C4.47035e-07 40.3333 0.25 38.5 0.75 37C1.41667 35.5 2.33333 34.25 3.5 33.25L35.75 6C36.5833 5.33333 37.6667 4.83332 39 4.49999C40.5 3.99999 42.0833 3.75 43.75 3.75H84C87.1667 3.75 89.75 4.41666 91.75 5.74998C93.9167 7.08332 95.9167 9.33332 97.75 12.5L114.75 43.75L117 39.75C117.667 38.5833 118.333 37.5 119 36.5C119.833 35.3333 120.667 34.4167 121.5 33.75L153.75 6.74999C155.083 5.74999 156.417 4.99999 157.75 4.49999C159.25 3.99999 161 3.75 163 3.75H203.5C207.5 3.75 210.417 4.66666 212.25 6.49999C214.083 8.33333 215 11.25 215 15.25V177.25C215 179.417 214.667 181.25 214 182.75C213.5 184.25 212.667 185.5 211.5 186.5L179 213.5C178.333 214.167 177.25 214.75 175.75 215.25C174.417 215.75 172.917 216 171.25 216H132.75C128.583 216 125.583 215.083 123.75 213.25C122.083 211.417 121.25 208.5 121.25 204.5V138.5L106.5 150.75C105.167 151.917 103.583 152.833 101.75 153.5C100.083 154 98.0833 154.25 95.75 154.25H92.5V177.25C92.5 179.417 92.1667 181.25 91.5 182.75C91 184.25 90.1667 185.5 89 186.5ZM399.805 204C393.971 209 385.805 212.833 375.305 215.5C364.805 218.333 351.305 219.75 334.805 219.75C318.471 219.75 305.055 218 294.555 214.5C284.221 211.167 276.055 206.667 270.055 201C264.221 195.333 260.138 188.833 257.805 181.5C255.638 174.167 254.555 166.583 254.555 158.75V81C254.555 73.3333 255.638 66.25 257.805 59.75C259.971 53.0833 263.888 47.4167 269.555 42.75L302.055 15.75C307.888 10.75 315.971 6.91666 326.305 4.24999C336.805 1.41665 350.388 -1.60933e-05 367.055 -1.60933e-05C383.388 -1.60933e-05 396.721 1.33332 407.055 3.99999C417.555 6.66665 425.721 10.4167 431.555 15.25C437.555 19.9167 441.638 25.5833 443.805 32.25C445.971 38.75 447.055 45.9167 447.055 53.75V139C447.055 146.667 445.971 153.75 443.805 160.25C441.638 166.75 437.721 172.333 432.055 177L399.805 204ZM444.555 139V53.75C444.555 46.0833 443.388 39.1667 441.055 33C438.888 26.6667 434.888 21.25 429.055 16.75C423.388 12.25 415.471 8.74999 405.305 6.24999C395.305 3.75 382.555 2.5 367.055 2.5C351.555 2.5 338.721 3.75 328.555 6.24999C318.388 8.74999 310.388 12.25 304.555 16.75C298.888 21.25 294.888 26.6667 292.555 33C290.388 39.1667 289.305 46.0833 289.305 53.75V139C289.305 146.667 290.388 153.667 292.555 160C294.888 166.167 298.888 171.5 304.555 176C310.388 180.333 318.388 183.75 328.555 186.25C338.721 188.75 351.555 190 367.055 190C382.555 190 395.305 188.75 405.305 186.25C415.471 183.75 423.388 180.333 429.055 176C434.888 171.5 438.888 166.167 441.055 160C443.388 153.667 444.555 146.667 444.555 139ZM417.305 133.25C417.305 143.25 413.721 151.417 406.555 157.75C399.388 163.917 386.055 167 366.555 167C347.055 167 333.805 163.917 326.805 157.75C319.805 151.417 316.305 143.25 316.305 133.25V59.5C316.305 49.5 319.805 41.4167 326.805 35.25C333.805 28.9167 347.055 25.75 366.555 25.75C386.055 25.75 399.388 28.9167 406.555 35.25C413.721 41.4167 417.305 49.5 417.305 59.5V133.25ZM318.805 133.25C318.805 142.583 322.138 150.167 328.805 156C335.471 161.667 348.055 164.5 366.555 164.5C385.055 164.5 397.721 161.667 404.555 156C411.388 150.167 414.805 142.583 414.805 133.25V59.5C414.805 50.1667 411.388 42.6667 404.555 37C397.721 31.1667 385.055 28.25 366.555 28.25C348.055 28.25 335.471 31.1667 328.805 37C322.138 42.6667 318.805 50.1667 318.805 59.5V133.25ZM346.055 130V62.75C346.055 59.5833 347.305 56.9167 349.805 54.75C352.305 52.4167 358.055 51.25 367.055 51.25C376.055 51.25 381.805 52.4167 384.305 54.75C386.805 56.9167 388.055 59.5833 388.055 62.75V130C388.055 133.333 386.805 136.167 384.305 138.5C381.805 140.667 376.055 141.75 367.055 141.75C358.055 141.75 352.305 140.667 349.805 138.5C347.305 136.167 346.055 133.333 346.055 130ZM348.555 130C348.555 131.667 348.888 133.167 349.555 134.5C350.221 135.667 351.471 136.667 353.305 137.5V90C353.305 88.3333 352.971 86.9167 352.305 85.75C351.638 84.4167 350.388 83.4167 348.555 82.75V130ZM629.033 204C623.2 209 615.033 212.833 604.533 215.5C594.033 218.333 580.533 219.75 564.033 219.75C547.7 219.75 534.283 218 523.783 214.5C513.45 211.167 505.283 206.667 499.283 201C493.45 195.333 489.367 188.833 487.033 181.5C484.867 174.167 483.783 166.583 483.783 158.75V81C483.783 73.3333 484.867 66.25 487.033 59.75C489.2 53.0833 493.117 47.4167 498.783 42.75L531.283 15.75C537.117 10.75 545.2 6.91666 555.533 4.24999C566.033 1.41665 579.617 -1.60933e-05 596.283 -1.60933e-05C612.617 -1.60933e-05 625.95 1.33332 636.283 3.99999C646.783 6.66665 654.95 10.4167 660.783 15.25C666.783 19.9167 670.867 25.5833 673.033 32.25C675.2 38.75 676.283 45.9167 676.283 53.75V139C676.283 146.667 675.2 153.75 673.033 160.25C670.867 166.75 666.95 172.333 661.283 177L629.033 204ZM673.783 139V53.75C673.783 46.0833 672.617 39.1667 670.283 33C668.117 26.6667 664.117 21.25 658.283 16.75C652.617 12.25 644.7 8.74999 634.533 6.24999C624.533 3.75 611.783 2.5 596.283 2.5C580.783 2.5 567.95 3.75 557.783 6.24999C547.617 8.74999 539.617 12.25 533.783 16.75C528.117 21.25 524.117 26.6667 521.783 33C519.617 39.1667 518.533 46.0833 518.533 53.75V139C518.533 146.667 519.617 153.667 521.783 160C524.117 166.167 528.117 171.5 533.783 176C539.617 180.333 547.617 183.75 557.783 186.25C567.95 188.75 580.783 190 596.283 190C611.783 190 624.533 188.75 634.533 186.25C644.7 183.75 652.617 180.333 658.283 176C664.117 171.5 668.117 166.167 670.283 160C672.617 153.667 673.783 146.667 673.783 139ZM646.533 133.25C646.533 143.25 642.95 151.417 635.783 157.75C628.617 163.917 615.283 167 595.783 167C576.283 167 563.033 163.917 556.033 157.75C549.033 151.417 545.533 143.25 545.533 133.25V59.5C545.533 49.5 549.033 41.4167 556.033 35.25C563.033 28.9167 576.283 25.75 595.783 25.75C615.283 25.75 628.617 28.9167 635.783 35.25C642.95 41.4167 646.533 49.5 646.533 59.5V133.25ZM548.033 133.25C548.033 142.583 551.367 150.167 558.033 156C564.7 161.667 577.283 164.5 595.783 164.5C614.283 164.5 626.95 161.667 633.783 156C640.617 150.167 644.033 142.583 644.033 133.25V59.5C644.033 50.1667 640.617 42.6667 633.783 37C626.95 31.1667 614.283 28.25 595.783 28.25C577.283 28.25 564.7 31.1667 558.033 37C551.367 42.6667 548.033 50.1667 548.033 59.5V133.25ZM575.283 130V62.75C575.283 59.5833 576.533 56.9167 579.033 54.75C581.533 52.4167 587.283 51.25 596.283 51.25C605.283 51.25 611.033 52.4167 613.533 54.75C616.033 56.9167 617.283 59.5833 617.283 62.75V130C617.283 133.333 616.033 136.167 613.533 138.5C611.033 140.667 605.283 141.75 596.283 141.75C587.283 141.75 581.533 140.667 579.033 138.5C576.533 136.167 575.283 133.333 575.283 130ZM577.783 130C577.783 131.667 578.117 133.167 578.783 134.5C579.45 135.667 580.7 136.667 582.533 137.5V90C582.533 88.3333 582.2 86.9167 581.533 85.75C580.867 84.4167 579.617 83.4167 577.783 82.75V130ZM759.762 216C755.928 216 752.845 215.25 750.512 213.75C748.178 212.417 746.262 209.917 744.762 206.25L720.262 145C718.762 141.167 717.428 137.917 716.262 135.25C715.262 132.417 714.428 129.75 713.762 127.25C713.095 124.583 712.595 121.833 712.262 119C712.095 116 712.012 112.5 712.012 108.5V42.5C712.012 40.3333 712.262 38.5 712.762 37C713.428 35.5 714.345 34.25 715.512 33.25L747.762 6C748.595 5.33333 749.678 4.83332 751.012 4.49999C752.512 3.99999 754.095 3.75 755.762 3.75H795.512C799.512 3.75 802.512 4.74999 804.512 6.74999C806.678 8.58333 807.762 11.4167 807.762 15.25V84.25C807.762 85.9167 807.928 87.5 808.262 89C808.595 90.5 809.012 92.0833 809.512 93.75L810.262 95.5V42.5C810.262 40.3333 810.512 38.5 811.012 37C811.678 35.5 812.595 34.25 813.762 33.25L846.012 6C846.845 5.33333 847.928 4.83332 849.262 4.49999C850.762 3.99999 852.345 3.75 854.012 3.75H893.262C897.428 3.75 900.345 4.66666 902.012 6.49999C903.845 8.33333 904.762 11.25 904.762 15.25V81.25C904.762 85.25 904.595 88.75 904.262 91.75C904.095 94.5833 903.678 97.3333 903.012 100C902.345 102.5 901.428 105.167 900.262 108C899.262 110.667 898.012 113.917 896.512 117.75L872.012 179C871.512 180.5 870.845 181.833 870.012 183C869.178 184.167 868.345 185.083 867.512 185.75L835.262 212.5C833.928 213.667 832.345 214.5 830.512 215C828.845 215.667 826.928 216 824.762 216H759.762ZM857.012 186.25C860.178 186.25 862.762 185.667 864.762 184.5C866.928 183.333 868.595 181.167 869.762 178L894.262 116.75C895.762 113.083 897.012 109.917 898.012 107.25C899.012 104.417 899.845 101.75 900.512 99.25C901.178 96.75 901.595 94.1667 901.762 91.5C902.095 88.6667 902.262 85.25 902.262 81.25V15.25C902.262 12.0833 901.512 9.83333 900.012 8.49999C898.678 6.99999 896.428 6.24999 893.262 6.24999H854.012C850.845 6.24999 848.512 6.99999 847.012 8.49999C845.678 9.83333 845.012 12.0833 845.012 15.25V84C845.012 85.6667 844.845 87.3333 844.512 89C844.178 90.6667 843.678 92.4167 843.012 94.25L831.262 129.5C830.762 131.167 830.178 132.333 829.512 133C828.845 133.5 827.845 133.75 826.512 133.75H823.762C822.428 133.75 821.428 133.5 820.762 133C820.095 132.333 819.512 131.167 819.012 129.5L807.262 94.5C806.595 92.6667 806.095 90.9167 805.762 89.25C805.428 87.5833 805.262 85.9167 805.262 84.25V15.25C805.262 12.0833 804.428 9.83333 802.762 8.49999C801.095 6.99999 798.678 6.24999 795.512 6.24999H755.762C752.595 6.24999 750.262 6.99999 748.762 8.49999C747.428 9.83333 746.762 12.0833 746.762 15.25V81.25C746.762 85.25 746.845 88.6667 747.012 91.5C747.345 94.1667 747.845 96.75 748.512 99.25C749.178 101.75 750.012 104.417 751.012 107.25C752.012 109.917 753.262 113.083 754.762 116.75L779.262 178C780.428 181.167 782.012 183.333 784.012 184.5C786.178 185.667 788.845 186.25 792.012 186.25H857.012ZM775.012 28.75H777.512V82.75C777.512 87.0833 777.845 91.25 778.512 95.25C779.178 99.0833 780.178 102.667 781.512 106L798.012 146C799.678 150.333 801.512 154 803.512 157C805.678 159.833 809.095 161.25 813.762 161.25H835.762C840.428 161.25 843.762 159.833 845.762 157C847.928 154 849.845 150.333 851.512 146L868.012 106C869.345 102.667 870.345 99.0833 871.012 95.25C871.678 91.25 872.012 87.0833 872.012 82.75V28.75H874.512V82.75C874.512 87.4167 874.178 91.75 873.512 95.75C873.012 99.5833 872.012 103.333 870.512 107L854.012 147C852.012 151.833 849.762 155.833 847.262 159C844.762 162.167 840.928 163.75 835.762 163.75H813.762C808.595 163.75 804.762 162.167 802.262 159C799.762 155.833 797.512 151.833 795.512 147L779.012 107C777.512 103.333 776.428 99.5833 775.762 95.75C775.262 91.75 775.012 87.4167 775.012 82.75V28.75ZM1070.78 216H954.781C950.781 216 947.865 215.083 946.031 213.25C944.198 211.417 943.281 208.5 943.281 204.5V42.5C943.281 40.3333 943.531 38.5 944.031 37C944.698 35.5 945.615 34.25 946.781 33.25L979.031 6C979.865 5.33333 980.948 4.83332 982.281 4.49999C983.781 3.99999 985.365 3.75 987.031 3.75H1103.03C1107.03 3.75 1109.95 4.66666 1111.78 6.49999C1113.61 8.33333 1114.53 11.25 1114.53 15.25V44.5C1114.53 46.6667 1114.2 48.5 1113.53 50C1113.03 51.5 1112.2 52.75 1111.03 53.75L1089.53 71.5C1091.2 72.3333 1092.36 73.5833 1093.03 75.25C1093.86 76.9167 1094.28 79.0833 1094.28 81.75V108.5C1094.28 110.667 1093.95 112.5 1093.28 114C1092.78 115.5 1091.95 116.75 1090.78 117.75L1068.53 136.5H1103.03C1107.03 136.5 1109.95 137.417 1111.78 139.25C1113.61 141.083 1114.53 144 1114.53 148V177.25C1114.53 179.417 1114.2 181.25 1113.53 182.75C1113.03 184.25 1112.2 185.5 1111.03 186.5L1078.53 213.5C1077.86 214.167 1076.78 214.75 1075.28 215.25C1073.95 215.75 1072.45 216 1070.78 216ZM1103.03 186.25C1106.2 186.25 1108.45 185.583 1109.78 184.25C1111.28 182.75 1112.03 180.417 1112.03 177.25V148C1112.03 144.833 1111.28 142.583 1109.78 141.25C1108.45 139.75 1106.2 139 1103.03 139H1034.03V117.5H1082.78C1085.95 117.5 1088.2 116.833 1089.53 115.5C1091.03 114 1091.78 111.667 1091.78 108.5V81.75C1091.78 78.5833 1091.03 76.3333 1089.53 75C1088.2 73.5 1085.95 72.75 1082.78 72.75H1034.03V53.5H1103.03C1106.2 53.5 1108.45 52.8333 1109.78 51.5C1111.28 50 1112.03 47.6667 1112.03 44.5V15.25C1112.03 12.0833 1111.28 9.83333 1109.78 8.49999C1108.45 6.99999 1106.2 6.24999 1103.03 6.24999H987.031C983.865 6.24999 981.531 6.99999 980.031 8.49999C978.698 9.83333 978.031 12.0833 978.031 15.25V177.25C978.031 180.417 978.698 182.75 980.031 184.25C981.531 185.583 983.865 186.25 987.031 186.25H1103.03ZM1089.53 161.25V163.75H1005.28V28.75H1089.53V31.25H1007.78V94H1069.28V96.5H1007.78V161.25H1089.53Z" fill="black"/>
</svg>
