<svg width="1663" height="213" viewBox="0 0 1663 213" fill="none" xmlns="http://www.w3.org/2000/svg">
<path d="M11.5 212.25C7.5 212.25 4.58333 211.333 2.75 209.5C0.916667 207.667 1.75089e-07 204.75 1.75089e-07 200.75V171.5C1.75089e-07 169.333 0.25 167.5 0.75 166C1.41667 164.5 2.33333 163.25 3.5 162.25L28.5 141.25C19.6667 138.583 12.6667 134.083 7.5 127.75C2.5 121.25 1.75089e-07 112 1.75089e-07 100V73.75C1.75089e-07 66.25 1.25 59.5833 3.75 53.75C6.25 47.9167 9.83333 43 14.5 39L47 11.75C51.5 8.08332 57.0833 5.24999 63.75 3.25C70.4167 1.08333 78 -4.76837e-06 86.5 -4.76837e-06H156.5C160.5 -4.76837e-06 163.417 0.91666 165.25 2.74999C167.083 4.58333 168 7.5 168 11.5V41.25C168 43.4167 167.667 45.25 167 46.75C166.5 48.25 165.667 49.5 164.5 50.5L142 69.25C152.5 71.5833 160.917 76 167.25 82.5C173.75 88.8333 177 98.75 177 112.25V138.5C177 146 175.75 152.667 173.25 158.5C170.75 164.333 167.083 169.25 162.25 173.25L130 200.25C125.333 204.083 119.667 207 113 209C106.333 211.167 98.8333 212.25 90.5 212.25H11.5ZM122.75 182.5C138.75 182.5 151.333 178.75 160.5 171.25C169.833 163.583 174.5 152.667 174.5 138.5V112.25C174.5 98.25 170.917 88.25 163.75 82.25C156.583 76.25 147.167 72.4167 135.5 70.75L98.25 65.75C96.0833 65.5833 94.4167 64.75 93.25 63.25C92.0833 61.75 91.5 59.9167 91.5 57.75C91.5 55.5833 92.0833 53.8333 93.25 52.5C94.4167 51 96.0833 50.25 98.25 50.25H156.5C159.667 50.25 161.917 49.5833 163.25 48.25C164.75 46.75 165.5 44.4167 165.5 41.25V11.5C165.5 8.33333 164.75 6.08333 163.25 4.74999C161.917 3.24999 159.667 2.49999 156.5 2.49999H86.5C70.3333 2.49999 57.6667 6.33333 48.5 14C39.3333 21.5 34.75 32.3333 34.75 46.5V72.75C34.75 86.75 38.25 96.75 45.25 102.75C52.4167 108.75 61.8333 112.583 73.5 114.25L111 119.5C113.167 119.667 114.75 120.417 115.75 121.75C116.917 123.083 117.5 125.167 117.5 128C117.5 130 116.917 131.75 115.75 133.25C114.75 134.583 113.167 135.25 111 135.25H43.75C40.5833 135.25 38.25 136 36.75 137.5C35.4167 138.833 34.75 141.083 34.75 144.25V173.5C34.75 176.667 35.4167 179 36.75 180.5C38.25 181.833 40.5833 182.5 43.75 182.5H122.75ZM143 25V27.5H87.5C80.5 27.5 74.9167 29.4167 70.75 33.25C66.5833 37.0833 64.5 41.9167 64.5 47.75V68.25C64.5 74.0833 65.6667 78.1667 68 80.5C70.3333 82.8333 73.4167 84.3333 77.25 85L130 95.75C135 96.75 139.083 98.9167 142.25 102.25C145.583 105.583 147.25 111.583 147.25 120.25V134.75C147.25 142.083 144.75 148.167 139.75 153C134.75 157.667 128 160 119.5 160H57.25V157.5H119.5C127.167 157.5 133.25 155.417 137.75 151.25C142.417 146.917 144.75 141.417 144.75 134.75V120.25C144.75 112.417 143.333 107.083 140.5 104.25C137.833 101.25 134.167 99.25 129.5 98.25L76.75 87.5C72.4167 86.6667 68.8333 85 66 82.5C63.3333 79.8333 62 75.0833 62 68.25V47.75C62 41.0833 64.3333 35.6667 69 31.5C73.6667 27.1667 79.8333 25 87.5 25H143ZM339.5 212.25H223.5C219.5 212.25 216.583 211.333 214.75 209.5C212.917 207.667 212 204.75 212 200.75V38.75C212 36.5833 212.25 34.75 212.75 33.25C213.417 31.75 214.333 30.5 215.5 29.5L247.75 2.25C248.583 1.58333 249.667 1.08332 251 0.749986C252.5 0.249992 254.083 -4.76837e-06 255.75 -4.76837e-06H371.75C375.75 -4.76837e-06 378.667 0.91666 380.5 2.74999C382.333 4.58333 383.25 7.5 383.25 11.5V40.75C383.25 42.9167 382.917 44.75 382.25 46.25C381.75 47.75 380.917 49 379.75 50L358.25 67.75C359.917 68.5833 361.083 69.8333 361.75 71.5C362.583 73.1667 363 75.3333 363 78V104.75C363 106.917 362.667 108.75 362 110.25C361.5 111.75 360.667 113 359.5 114L337.25 132.75H371.75C375.75 132.75 378.667 133.667 380.5 135.5C382.333 137.333 383.25 140.25 383.25 144.25V173.5C383.25 175.667 382.917 177.5 382.25 179C381.75 180.5 380.917 181.75 379.75 182.75L347.25 209.75C346.583 210.417 345.5 211 344 211.5C342.667 212 341.167 212.25 339.5 212.25ZM371.75 182.5C374.917 182.5 377.167 181.833 378.5 180.5C380 179 380.75 176.667 380.75 173.5V144.25C380.75 141.083 380 138.833 378.5 137.5C377.167 136 374.917 135.25 371.75 135.25H302.75V113.75H351.5C354.667 113.75 356.917 113.083 358.25 111.75C359.75 110.25 360.5 107.917 360.5 104.75V78C360.5 74.8333 359.75 72.5833 358.25 71.25C356.917 69.75 354.667 69 351.5 69H302.75V49.75H371.75C374.917 49.75 377.167 49.0833 378.5 47.75C380 46.25 380.75 43.9167 380.75 40.75V11.5C380.75 8.33333 380 6.08333 378.5 4.74999C377.167 3.24999 374.917 2.49999 371.75 2.49999H255.75C252.583 2.49999 250.25 3.24999 248.75 4.74999C247.417 6.08333 246.75 8.33333 246.75 11.5V173.5C246.75 176.667 247.417 179 248.75 180.5C250.25 181.833 252.583 182.5 255.75 182.5H371.75ZM358.25 157.5V160H274V25H358.25V27.5H276.5V90.25H338V92.75H276.5V157.5H358.25ZM507.977 212.25H467.477C463.477 212.25 460.56 211.333 458.727 209.5C456.893 207.667 455.977 204.75 455.977 200.75V80.5H421.727C417.727 80.5 414.81 79.5833 412.977 77.75C411.143 75.9167 410.227 73 410.227 69V38.75C410.227 36.5833 410.477 34.75 410.977 33.25C411.643 31.75 412.56 30.5 413.727 29.5L445.977 2.25C446.81 1.58333 447.893 1.08332 449.227 0.749986C450.727 0.249992 452.31 -4.76837e-06 453.977 -4.76837e-06H585.977C589.977 -4.76837e-06 592.893 0.91666 594.727 2.74999C596.56 4.58333 597.477 7.5 597.477 11.5V41.75C597.477 43.9167 597.143 45.75 596.477 47.25C595.977 48.75 595.143 50 593.977 51L561.477 78C560.81 78.6667 559.727 79.25 558.227 79.75C556.893 80.25 555.393 80.5 553.727 80.5H551.727V173.5C551.727 175.667 551.393 177.5 550.727 179C550.227 180.5 549.393 181.75 548.227 182.75L515.727 209.75C515.06 210.417 513.977 211 512.477 211.5C511.143 212 509.643 212.25 507.977 212.25ZM540.227 182.5C543.393 182.5 545.643 181.833 546.977 180.5C548.477 179 549.227 176.667 549.227 173.5V50.75H585.977C589.143 50.75 591.393 50.0833 592.727 48.75C594.227 47.25 594.977 44.9167 594.977 41.75V11.5C594.977 8.33333 594.227 6.08333 592.727 4.74999C591.393 3.24999 589.143 2.49999 585.977 2.49999H453.977C450.81 2.49999 448.477 3.24999 446.977 4.74999C445.643 6.08333 444.977 8.33333 444.977 11.5V41.75C444.977 44.9167 445.643 47.25 446.977 48.75C448.477 50.0833 450.81 50.75 453.977 50.75H490.727V173.5C490.727 176.667 491.393 179 492.727 180.5C494.227 181.833 496.56 182.5 499.727 182.5H540.227ZM518.727 160V27.5H467.477V25H572.477V27.5H521.227V160H518.727ZM716.941 212.25H676.441C672.441 212.25 669.525 211.333 667.691 209.5C665.858 207.667 664.941 204.75 664.941 200.75V80.5H630.691C626.691 80.5 623.775 79.5833 621.941 77.75C620.108 75.9167 619.191 73 619.191 69V38.75C619.191 36.5833 619.441 34.75 619.941 33.25C620.608 31.75 621.525 30.5 622.691 29.5L654.941 2.25C655.775 1.58333 656.858 1.08332 658.191 0.749986C659.691 0.249992 661.275 -4.76837e-06 662.941 -4.76837e-06H794.941C798.941 -4.76837e-06 801.858 0.91666 803.691 2.74999C805.525 4.58333 806.441 7.5 806.441 11.5V41.75C806.441 43.9167 806.108 45.75 805.441 47.25C804.941 48.75 804.108 50 802.941 51L770.441 78C769.775 78.6667 768.691 79.25 767.191 79.75C765.858 80.25 764.358 80.5 762.691 80.5H760.691V173.5C760.691 175.667 760.358 177.5 759.691 179C759.191 180.5 758.358 181.75 757.191 182.75L724.691 209.75C724.025 210.417 722.941 211 721.441 211.5C720.108 212 718.608 212.25 716.941 212.25ZM749.191 182.5C752.358 182.5 754.608 181.833 755.941 180.5C757.441 179 758.191 176.667 758.191 173.5V50.75H794.941C798.108 50.75 800.358 50.0833 801.691 48.75C803.191 47.25 803.941 44.9167 803.941 41.75V11.5C803.941 8.33333 803.191 6.08333 801.691 4.74999C800.358 3.24999 798.108 2.49999 794.941 2.49999H662.941C659.775 2.49999 657.441 3.24999 655.941 4.74999C654.608 6.08333 653.941 8.33333 653.941 11.5V41.75C653.941 44.9167 654.608 47.25 655.941 48.75C657.441 50.0833 659.775 50.75 662.941 50.75H699.691V173.5C699.691 176.667 700.358 179 701.691 180.5C703.191 181.833 705.525 182.5 708.691 182.5H749.191ZM727.691 160V27.5H676.441V25H781.441V27.5H730.191V160H727.691ZM952.406 212.25H845.906C841.906 212.25 838.99 211.333 837.156 209.5C835.323 207.667 834.406 204.75 834.406 200.75V171C834.406 168.833 834.656 167 835.156 165.5C835.823 164 836.74 162.75 837.906 161.75L868.156 136.25V80.5H845.906C841.906 80.5 838.99 79.5833 837.156 77.75C835.323 75.9167 834.406 73 834.406 69V38.75C834.406 36.5833 834.656 34.75 835.156 33.25C835.823 31.75 836.74 30.5 837.906 29.5L870.156 2.25C870.99 1.58333 872.073 1.08332 873.406 0.749986C874.906 0.249992 876.49 -4.76837e-06 878.156 -4.76837e-06H984.656C988.656 -4.76837e-06 991.573 0.91666 993.406 2.74999C995.24 4.58333 996.156 7.5 996.156 11.5V41.75C996.156 43.9167 995.823 45.75 995.156 47.25C994.656 48.75 993.823 50 992.656 51L962.906 76V132.25H984.656C988.656 132.25 991.573 133.167 993.406 135C995.24 136.833 996.156 139.75 996.156 143.75V173.5C996.156 175.667 995.823 177.5 995.156 179C994.656 180.5 993.823 181.75 992.656 182.75L960.156 209.75C959.49 210.417 958.406 211 956.906 211.5C955.573 212 954.073 212.25 952.406 212.25ZM878.156 182.5H984.656C987.823 182.5 990.073 181.833 991.406 180.5C992.906 179 993.656 176.667 993.656 173.5V143.75C993.656 140.583 992.906 138.333 991.406 137C990.073 135.5 987.823 134.75 984.656 134.75H960.406V50.75H984.656C987.823 50.75 990.073 50.0833 991.406 48.75C992.906 47.25 993.656 44.9167 993.656 41.75V11.5C993.656 8.33333 992.906 6.08333 991.406 4.74999C990.073 3.24999 987.823 2.49999 984.656 2.49999H878.156C874.99 2.49999 872.656 3.24999 871.156 4.74999C869.823 6.08333 869.156 8.33333 869.156 11.5V41.75C869.156 44.9167 869.823 47.25 871.156 48.75C872.656 50.0833 874.99 50.75 878.156 50.75H902.906V134.75H878.156C874.99 134.75 872.656 135.5 871.156 137C869.823 138.333 869.156 140.583 869.156 143.75V173.5C869.156 176.667 869.823 179 871.156 180.5C872.656 181.833 874.99 182.5 878.156 182.5ZM971.156 160H891.656V157.5H930.406V27.5H891.656V25H971.156V27.5H932.906V157.5H971.156V160ZM1102.43 27L1194.43 130.5V25H1196.93V160H1194.43V134.25L1099.93 28.25C1099.76 28.0833 1099.51 27.9167 1099.18 27.75C1099.01 27.5833 1098.84 27.5 1098.68 27.5C1098.51 27.5 1098.34 27.5833 1098.18 27.75C1098.18 27.9167 1098.18 28.0833 1098.18 28.25V160H1095.68V27.75C1095.68 26.75 1096.01 26 1096.68 25.5C1097.34 25 1098.01 24.75 1098.68 24.75C1099.34 24.75 1099.93 24.9167 1100.43 25.25C1100.93 25.5833 1101.59 26.1667 1102.43 27ZM1115.93 182.5C1119.09 182.5 1121.34 181.833 1122.68 180.5C1124.18 179 1124.93 176.667 1124.93 173.5V91L1167.68 142.75V173.5C1167.68 176.667 1168.34 179 1169.68 180.5C1171.18 181.833 1173.51 182.5 1176.68 182.5H1214.18C1217.34 182.5 1219.59 181.833 1220.93 180.5C1222.43 179 1223.18 176.667 1223.18 173.5V11.5C1223.18 8.33333 1222.43 6.08333 1220.93 4.74999C1219.59 3.24999 1217.34 2.49999 1214.18 2.49999H1176.68C1173.51 2.49999 1171.18 3.24999 1169.68 4.74999C1168.34 6.08333 1167.68 8.33333 1167.68 11.5V64.75L1119.18 9.25C1117.01 6.75 1114.76 5 1112.43 3.99999C1110.26 2.99999 1107.59 2.49999 1104.43 2.49999H1078.43C1075.26 2.49999 1072.93 3.24999 1071.43 4.74999C1070.09 6.08333 1069.43 8.33333 1069.43 11.5V173.5C1069.43 176.667 1070.09 179 1071.43 180.5C1072.93 181.833 1075.26 182.5 1078.43 182.5H1115.93ZM1123.93 182.75L1091.43 209.75C1090.76 210.417 1089.68 211 1088.18 211.5C1086.84 212 1085.34 212.25 1083.68 212.25H1046.18C1042.18 212.25 1039.26 211.333 1037.43 209.5C1035.59 207.667 1034.68 204.75 1034.68 200.75V38.75C1034.68 36.5833 1034.93 34.75 1035.43 33.25C1036.09 31.75 1037.01 30.5 1038.18 29.5L1070.43 2.25C1071.26 1.58333 1072.34 1.08332 1073.68 0.749986C1075.18 0.249992 1076.76 -4.76837e-06 1078.43 -4.76837e-06H1104.43C1108.09 -4.76837e-06 1111.18 0.583326 1113.68 1.74999C1116.18 2.91666 1118.68 4.83333 1121.18 7.49999L1138.43 27.5L1168.68 2.25C1169.51 1.58333 1170.59 1.08332 1171.93 0.749986C1173.43 0.249992 1175.01 -4.76837e-06 1176.68 -4.76837e-06H1214.18C1218.18 -4.76837e-06 1221.09 0.91666 1222.93 2.74999C1224.76 4.58333 1225.68 7.5 1225.68 11.5V173.5C1225.68 175.667 1225.34 177.5 1224.68 179C1224.18 180.5 1223.34 181.75 1222.18 182.75L1189.68 209.75C1189.01 210.417 1187.93 211 1186.43 211.5C1185.09 212 1183.59 212.25 1181.93 212.25H1144.43C1140.43 212.25 1137.51 211.333 1135.68 209.5C1133.84 207.667 1132.93 204.75 1132.93 200.75V171L1127.43 164.25V173.5C1127.43 175.667 1127.09 177.5 1126.43 179C1125.93 180.5 1125.09 181.75 1123.93 182.75ZM1407.81 212.25H1329.06C1307.23 212.25 1291.06 206.583 1280.56 195.25C1270.23 183.917 1265.06 169.25 1265.06 151.25V80.75C1265.06 71.5833 1266.39 63.6667 1269.06 57C1271.73 50.3333 1275.64 44.75 1280.81 40.25L1313.06 13C1318.23 8.66665 1324.81 5.41666 1332.81 3.25C1340.98 1.08333 1350.48 -4.76837e-06 1361.31 -4.76837e-06H1423.81C1427.81 -4.76837e-06 1430.73 0.91666 1432.56 2.74999C1434.39 4.58333 1435.31 7.5 1435.31 11.5V41.75C1435.31 43.9167 1434.98 45.75 1434.31 47.25C1433.81 48.75 1432.98 50 1431.81 51L1399.31 78C1398.64 78.6667 1397.56 79.25 1396.06 79.75C1394.73 80.25 1393.23 80.5 1391.56 80.5H1359.06V116.5C1359.23 116.167 1359.48 115.833 1359.81 115.5C1360.31 115 1360.73 114.583 1361.06 114.25L1393.31 87C1394.14 86.3333 1395.23 85.8333 1396.56 85.5C1398.06 85 1399.64 84.75 1401.31 84.75H1440.06C1444.06 84.75 1446.98 85.6667 1448.81 87.5C1450.64 89.3333 1451.56 92.25 1451.56 96.25V173.5C1451.56 175.667 1451.23 177.5 1450.56 179C1450.06 180.5 1449.23 181.75 1448.06 182.75L1415.56 209.75C1414.89 210.417 1413.81 211 1412.31 211.5C1410.98 212 1409.48 212.25 1407.81 212.25ZM1440.06 182.5C1443.23 182.5 1445.48 181.833 1446.81 180.5C1448.31 179 1449.06 176.667 1449.06 173.5V96.25C1449.06 93.0833 1448.31 90.8333 1446.81 89.5C1445.48 88 1443.23 87.25 1440.06 87.25H1401.31C1398.14 87.25 1395.81 88 1394.31 89.5C1392.98 90.8333 1392.31 93.0833 1392.31 96.25V135.25H1368.06C1364.23 135.25 1361.31 134.25 1359.31 132.25C1357.48 130.25 1356.56 127.167 1356.56 123V63.25C1356.56 59.0833 1357.81 56 1360.31 54C1362.81 51.8333 1366.64 50.75 1371.81 50.75H1423.81C1426.98 50.75 1429.23 50.0833 1430.56 48.75C1432.06 47.25 1432.81 44.9167 1432.81 41.75V11.5C1432.81 8.33333 1432.06 6.08333 1430.56 4.74999C1429.23 3.24999 1426.98 2.49999 1423.81 2.49999H1361.31C1340.48 2.49999 1324.98 6.66666 1314.81 15C1304.81 23.3333 1299.81 36.1667 1299.81 53.5V131.5C1299.81 148.833 1304.81 161.667 1314.81 170C1324.98 178.333 1340.48 182.5 1361.31 182.5H1440.06ZM1372.06 160C1362.89 160 1355.39 159.417 1349.56 158.25C1343.73 157.083 1339.14 155.25 1335.81 152.75C1332.48 150.083 1330.14 146.75 1328.81 142.75C1327.64 138.583 1327.06 133.583 1327.06 127.75V57.75C1327.06 45.9167 1329.73 37.5 1335.06 32.5C1340.39 27.5 1351.06 25 1367.06 25H1410.31V27.5H1367.06C1352.39 27.5 1342.48 29.8333 1337.31 34.5C1332.14 39 1329.56 46.75 1329.56 57.75V127.75C1329.56 138.583 1332.39 146.25 1338.06 150.75C1343.89 155.25 1355.23 157.5 1372.06 157.5H1419.31V109.75H1421.81V160H1372.06ZM1496.71 212.25C1492.71 212.25 1489.8 211.333 1487.96 209.5C1486.13 207.667 1485.21 204.75 1485.21 200.75V171.5C1485.21 169.333 1485.46 167.5 1485.96 166C1486.63 164.5 1487.55 163.25 1488.71 162.25L1513.71 141.25C1504.88 138.583 1497.88 134.083 1492.71 127.75C1487.71 121.25 1485.21 112 1485.21 100V73.75C1485.21 66.25 1486.46 59.5833 1488.96 53.75C1491.46 47.9167 1495.05 43 1499.71 39L1532.21 11.75C1536.71 8.08332 1542.3 5.24999 1548.96 3.25C1555.63 1.08333 1563.21 -4.76837e-06 1571.71 -4.76837e-06H1641.71C1645.71 -4.76837e-06 1648.63 0.91666 1650.46 2.74999C1652.3 4.58333 1653.21 7.5 1653.21 11.5V41.25C1653.21 43.4167 1652.88 45.25 1652.21 46.75C1651.71 48.25 1650.88 49.5 1649.71 50.5L1627.21 69.25C1637.71 71.5833 1646.13 76 1652.46 82.5C1658.96 88.8333 1662.21 98.75 1662.21 112.25V138.5C1662.21 146 1660.96 152.667 1658.46 158.5C1655.96 164.333 1652.3 169.25 1647.46 173.25L1615.21 200.25C1610.55 204.083 1604.88 207 1598.21 209C1591.55 211.167 1584.05 212.25 1575.71 212.25H1496.71ZM1607.96 182.5C1623.96 182.5 1636.55 178.75 1645.71 171.25C1655.05 163.583 1659.71 152.667 1659.71 138.5V112.25C1659.71 98.25 1656.13 88.25 1648.96 82.25C1641.8 76.25 1632.38 72.4167 1620.71 70.75L1583.46 65.75C1581.3 65.5833 1579.63 64.75 1578.46 63.25C1577.3 61.75 1576.71 59.9167 1576.71 57.75C1576.71 55.5833 1577.3 53.8333 1578.46 52.5C1579.63 51 1581.3 50.25 1583.46 50.25H1641.71C1644.88 50.25 1647.13 49.5833 1648.46 48.25C1649.96 46.75 1650.71 44.4167 1650.71 41.25V11.5C1650.71 8.33333 1649.96 6.08333 1648.46 4.74999C1647.13 3.24999 1644.88 2.49999 1641.71 2.49999H1571.71C1555.55 2.49999 1542.88 6.33333 1533.71 14C1524.55 21.5 1519.96 32.3333 1519.96 46.5V72.75C1519.96 86.75 1523.46 96.75 1530.46 102.75C1537.63 108.75 1547.05 112.583 1558.71 114.25L1596.21 119.5C1598.38 119.667 1599.96 120.417 1600.96 121.75C1602.13 123.083 1602.71 125.167 1602.71 128C1602.71 130 1602.13 131.75 1600.96 133.25C1599.96 134.583 1598.38 135.25 1596.21 135.25H1528.96C1525.8 135.25 1523.46 136 1521.96 137.5C1520.63 138.833 1519.96 141.083 1519.96 144.25V173.5C1519.96 176.667 1520.63 179 1521.96 180.5C1523.46 181.833 1525.8 182.5 1528.96 182.5H1607.96ZM1628.21 25V27.5H1572.71C1565.71 27.5 1560.13 29.4167 1555.96 33.25C1551.8 37.0833 1549.71 41.9167 1549.71 47.75V68.25C1549.71 74.0833 1550.88 78.1667 1553.21 80.5C1555.55 82.8333 1558.63 84.3333 1562.46 85L1615.21 95.75C1620.21 96.75 1624.3 98.9167 1627.46 102.25C1630.8 105.583 1632.46 111.583 1632.46 120.25V134.75C1632.46 142.083 1629.96 148.167 1624.96 153C1619.96 157.667 1613.21 160 1604.71 160H1542.46V157.5H1604.71C1612.38 157.5 1618.46 155.417 1622.96 151.25C1627.63 146.917 1629.96 141.417 1629.96 134.75V120.25C1629.96 112.417 1628.55 107.083 1625.71 104.25C1623.05 101.25 1619.38 99.25 1614.71 98.25L1561.96 87.5C1557.63 86.6667 1554.05 85 1551.21 82.5C1548.55 79.8333 1547.21 75.0833 1547.21 68.25V47.75C1547.21 41.0833 1549.55 35.6667 1554.21 31.5C1558.88 27.1667 1565.05 25 1572.71 25H1628.21Z" fill="black"/>
</svg>
