<svg width="1584" height="220" viewBox="0 0 1584 220" fill="none" xmlns="http://www.w3.org/2000/svg">
<path d="M127 100C129.667 100 131.75 100.833 133.25 102.5C134.917 104 136.917 107.083 139.25 111.75L162.25 157.75C163.083 159.417 164.083 160.417 165.25 160.75C166.583 161.083 167.833 161.25 169 161.25H170.25C171.583 161.25 172.833 160.75 174 159.75C175.167 158.583 175.833 157.333 176 156L182.25 127.5C182.917 124.333 183.25 120.25 183.25 115.25C183.417 110.25 183.5 105.917 183.5 102.25V28.75H186V102.5C186 106.167 185.917 110.5 185.75 115.5C185.75 120.5 185.417 124.583 184.75 127.75L178.5 156C177.833 158.667 176.75 160.667 175.25 162C173.917 163.167 172.25 163.75 170.25 163.75H168.5C167 163.75 165.417 163.5 163.75 163C162.25 162.333 161.083 161.167 160.25 159.5L137.25 113C135.083 108.667 133.333 105.833 132 104.5C130.667 103.167 129 102.5 127 102.5H120.75C118.75 102.5 117.083 103.167 115.75 104.5C114.417 105.833 112.667 108.667 110.5 113L87.5 159.5C86.6667 161.167 85.4167 162.333 83.75 163C82.25 163.5 80.75 163.75 79.25 163.75H77.5C75.5 163.75 73.75 163.167 72.25 162C70.9167 160.667 69.9167 158.667 69.25 156L63 127.75C62.3333 124.583 61.9167 120.5 61.75 115.5C61.75 110.5 61.75 106.167 61.75 102.5V28.75H64.25V102.25C64.25 105.917 64.25 110.25 64.25 115.25C64.4167 120.25 64.8333 124.333 65.5 127.5L71.75 156C71.9167 157.333 72.5833 158.583 73.75 159.75C74.9167 160.75 76.1667 161.25 77.5 161.25H78.75C79.9167 161.25 81.0833 161.083 82.25 160.75C83.5833 160.417 84.6667 159.417 85.5 157.75L108.5 111.75C110.833 107.083 112.75 104 114.25 102.5C115.917 100.833 118.083 100 120.75 100H127ZM166.25 6.24999C163.083 6.24999 160.75 6.99999 159.25 8.49999C157.917 9.83333 157.25 12.0833 157.25 15.25V107.25L142.75 75.75C141.417 72.9167 139.667 70.9167 137.5 69.75C135.333 68.5833 132.667 68 129.5 68H119C115.833 68 113.167 68.5833 111 69.75C108.833 70.9167 107.083 72.9167 105.75 75.75L91.25 107.25V15.25C91.25 12.0833 90.5 9.83333 89 8.49999C87.6667 6.99999 85.4167 6.24999 82.25 6.24999H43.75C40.5833 6.24999 38.25 6.99999 36.75 8.49999C35.4167 9.83333 34.75 12.0833 34.75 15.25V111.75C34.75 117.083 34.9167 122.083 35.25 126.75C35.75 131.25 37.0833 136.583 39.25 142.75L51.75 177.25C52.5833 179.917 53.9167 182.083 55.75 183.75C57.75 185.417 60.0833 186.25 62.75 186.25H95.75C98.4167 186.25 100.667 185.667 102.5 184.5C104.333 183.167 105.583 181.25 106.25 178.75L118 138C118.5 136.333 119.083 135.25 119.75 134.75C120.583 134.083 121.5 133.75 122.5 133.75H124.75C125.75 133.75 126.583 134.083 127.25 134.75C128.083 135.25 128.75 136.333 129.25 138L140.75 178.75C141.417 181.417 142.833 183.333 145 184.5C147.167 185.667 149.583 186.25 152.25 186.25H185.5C188.167 186.25 190.25 185.417 191.75 183.75C193.417 181.917 194.667 179.75 195.5 177.25L208 143.25C210.167 137.083 211.417 131.75 211.75 127.25C212.25 122.583 212.5 117.583 212.5 112.25V15.25C212.5 12.0833 211.75 9.83333 210.25 8.49999C208.917 6.99999 206.667 6.24999 203.5 6.24999H166.25ZM72.25 213C71.0833 213.833 69.75 214.5 68.25 215C66.75 215.667 65.1667 216 63.5 216H30.5C27.3333 216 24.5833 215 22.25 213C19.9167 211 18.25 208.417 17.25 205.25L4.75 170.75C2.41667 164.583 1 159.167 0.500001 154.5C0.166667 149.667 5.43892e-07 144.5 5.43892e-07 139V42.5C5.43892e-07 40.3333 0.25 38.5 0.75 37C1.41667 35.5 2.33333 34.25 3.5 33.25L35.75 6C36.5833 5.33333 37.6667 4.83332 39 4.49999C40.5 3.99999 42.0833 3.75 43.75 3.75H82.25C86.25 3.75 89.1667 4.66666 91 6.49999C92.8333 8.33333 93.75 11.25 93.75 15.25V80.5L107.75 68.75C109.083 67.5833 110.667 66.75 112.5 66.25C114.5 65.75 116.667 65.5 119 65.5H122.5V42.5C122.5 40.3333 122.75 38.5 123.25 37C123.75 35.5 124.5 34.3333 125.5 33.5L125.75 33.25L158.25 6C159.083 5.33333 160.167 4.83332 161.5 4.49999C162.833 3.99999 164.417 3.75 166.25 3.75H203.5C207.5 3.75 210.417 4.66666 212.25 6.49999C214.083 8.33333 215 11.25 215 15.25V112.25C215 117.75 214.75 122.917 214.25 127.75C213.917 132.417 212.583 137.833 210.25 144L197.75 178C197.25 179.667 196.583 181.167 195.75 182.5C194.917 183.833 193.917 185.083 192.75 186.25L160.5 213C159.5 214 158.417 214.75 157.25 215.25C156.083 215.75 154.75 216 153.25 216H120C116.667 216 113.75 215.25 111.25 213.75C108.75 212.25 107 209.917 106 206.75L101 189L72.25 213ZM397.416 204C391.583 209 383.416 212.833 372.916 215.5C362.416 218.333 348.916 219.75 332.416 219.75C316.083 219.75 302.666 218 292.166 214.5C281.833 211.167 273.666 206.667 267.666 201C261.833 195.333 257.749 188.833 255.416 181.5C253.249 174.167 252.166 166.583 252.166 158.75V81C252.166 73.3333 253.249 66.25 255.416 59.75C257.583 53.0833 261.499 47.4167 267.166 42.75L299.666 15.75C305.499 10.75 313.583 6.91666 323.916 4.24999C334.416 1.41665 347.999 -1.60933e-05 364.666 -1.60933e-05C380.999 -1.60933e-05 394.333 1.33332 404.666 3.99999C415.166 6.66665 423.333 10.4167 429.166 15.25C435.166 19.9167 439.249 25.5833 441.416 32.25C443.583 38.75 444.666 45.9167 444.666 53.75V139C444.666 146.667 443.583 153.75 441.416 160.25C439.249 166.75 435.333 172.333 429.666 177L397.416 204ZM442.166 139V53.75C442.166 46.0833 440.999 39.1667 438.666 33C436.499 26.6667 432.499 21.25 426.666 16.75C420.999 12.25 413.083 8.74999 402.916 6.24999C392.916 3.75 380.166 2.5 364.666 2.5C349.166 2.5 336.333 3.75 326.166 6.24999C315.999 8.74999 307.999 12.25 302.166 16.75C296.499 21.25 292.499 26.6667 290.166 33C287.999 39.1667 286.916 46.0833 286.916 53.75V139C286.916 146.667 287.999 153.667 290.166 160C292.499 166.167 296.499 171.5 302.166 176C307.999 180.333 315.999 183.75 326.166 186.25C336.333 188.75 349.166 190 364.666 190C380.166 190 392.916 188.75 402.916 186.25C413.083 183.75 420.999 180.333 426.666 176C432.499 171.5 436.499 166.167 438.666 160C440.999 153.667 442.166 146.667 442.166 139ZM414.916 133.25C414.916 143.25 411.333 151.417 404.166 157.75C396.999 163.917 383.666 167 364.166 167C344.666 167 331.416 163.917 324.416 157.75C317.416 151.417 313.916 143.25 313.916 133.25V59.5C313.916 49.5 317.416 41.4167 324.416 35.25C331.416 28.9167 344.666 25.75 364.166 25.75C383.666 25.75 396.999 28.9167 404.166 35.25C411.333 41.4167 414.916 49.5 414.916 59.5V133.25ZM316.416 133.25C316.416 142.583 319.749 150.167 326.416 156C333.083 161.667 345.666 164.5 364.166 164.5C382.666 164.5 395.333 161.667 402.166 156C408.999 150.167 412.416 142.583 412.416 133.25V59.5C412.416 50.1667 408.999 42.6667 402.166 37C395.333 31.1667 382.666 28.25 364.166 28.25C345.666 28.25 333.083 31.1667 326.416 37C319.749 42.6667 316.416 50.1667 316.416 59.5V133.25ZM343.666 130V62.75C343.666 59.5833 344.916 56.9167 347.416 54.75C349.916 52.4167 355.666 51.25 364.666 51.25C373.666 51.25 379.416 52.4167 381.916 54.75C384.416 56.9167 385.666 59.5833 385.666 62.75V130C385.666 133.333 384.416 136.167 381.916 138.5C379.416 140.667 373.666 141.75 364.666 141.75C355.666 141.75 349.916 140.667 347.416 138.5C344.916 136.167 343.666 133.333 343.666 130ZM346.166 130C346.166 131.667 346.499 133.167 347.166 134.5C347.833 135.667 349.083 136.667 350.916 137.5V90C350.916 88.3333 350.583 86.9167 349.916 85.75C349.249 84.4167 347.999 83.4167 346.166 82.75V130ZM602.895 31.25H548.395V103.5H602.895C613.228 103.5 620.145 101 623.645 96C627.145 91 628.895 83.9167 628.895 74.75V57.25C628.895 49.5833 626.728 43.3333 622.395 38.5C618.228 33.6667 611.728 31.25 602.895 31.25ZM575.395 51.25H594.145C598.478 51.25 601.395 52.4167 602.895 54.75C604.395 56.9167 605.145 59.6667 605.145 63V71.5C605.145 74.8333 604.395 77.6667 602.895 80C601.395 82.1667 598.478 83.25 594.145 83.25H575.395V51.25ZM548.395 163.75H545.895V28.75H602.895C612.561 28.75 619.728 31.5 624.395 37C629.061 42.3333 631.395 49.0833 631.395 57.25V74.5C631.395 82.1667 630.395 88.5 628.395 93.5C626.395 98.3333 622.395 101.667 616.395 103.5H619.145C629.311 103.5 636.895 105.833 641.895 110.5C646.895 115 649.395 121.583 649.395 130.25V163.75H646.895V130.25C646.895 122.083 644.645 116 640.145 112C635.645 107.833 628.645 105.75 619.145 105.75H548.395V163.75ZM566.395 186.25C569.561 186.25 571.811 185.583 573.145 184.25C574.645 182.75 575.395 180.417 575.395 177.25V128.25H610.395C613.895 128.25 616.311 129.167 617.645 131C619.145 132.667 619.895 135.333 619.895 139V177.25C619.895 180.417 620.561 182.75 621.895 184.25C623.395 185.583 625.728 186.25 628.895 186.25H667.645C670.811 186.25 673.061 185.583 674.395 184.25C675.895 182.75 676.645 180.417 676.645 177.25V124.25C676.645 113.75 673.811 105.333 668.145 99C662.645 92.6667 655.395 89 646.395 88C651.561 85.8333 655.145 82.3333 657.145 77.5C659.311 72.5 660.395 66.5 660.395 59.5V48C660.395 35.6667 656.811 25.6667 649.645 18C642.645 10.1667 629.811 6.24999 611.145 6.24999H527.895C524.728 6.24999 522.395 6.99999 520.895 8.49999C519.561 9.83333 518.895 12.0833 518.895 15.25V177.25C518.895 180.417 519.561 182.75 520.895 184.25C522.395 185.583 524.728 186.25 527.895 186.25H566.395ZM574.395 186.5L541.895 213.5C541.228 214.167 540.145 214.75 538.645 215.25C537.311 215.75 535.811 216 534.145 216H495.645C491.645 216 488.728 215.083 486.895 213.25C485.061 211.417 484.145 208.5 484.145 204.5V42.5C484.145 40.3333 484.395 38.5 484.895 37C485.561 35.5 486.478 34.25 487.645 33.25L519.895 6C520.728 5.33333 521.811 4.83332 523.145 4.49999C524.645 3.99999 526.228 3.75 527.895 3.75H611.145C630.978 3.75 644.561 7.91666 651.895 16.25C659.228 24.4167 662.895 35 662.895 48V59.5C662.895 65.6667 662.145 71.0833 660.645 75.75C659.145 80.25 656.728 83.9167 653.395 86.75H653.145C660.978 88.9167 667.228 93.25 671.895 99.75C676.728 106.25 679.145 114.417 679.145 124.25V177.25C679.145 179.417 678.811 181.25 678.145 182.75C677.645 184.25 676.811 185.5 675.645 186.5L643.145 213.5C642.478 214.167 641.395 214.75 639.895 215.25C638.561 215.75 637.061 216 635.395 216H596.645C592.645 216 589.728 215.083 587.895 213.25C586.061 211.417 585.145 208.5 585.145 204.5V166.25C585.145 163.583 584.645 161.583 583.645 160.25C582.645 158.75 580.811 158 578.145 158H577.895V177.25C577.895 179.417 577.561 181.25 576.895 182.75C576.395 184.25 575.561 185.5 574.395 186.5ZM779.338 163.75H776.838V28.75H779.338V95.25H833.588L862.338 28.75H865.088L836.338 95.25H846.588C856.755 95.25 864.338 97.1667 869.338 101C874.338 104.833 876.838 111.083 876.838 119.75V163.75H874.338V119.75C874.338 111.75 872.005 106.083 867.338 102.75C862.671 99.4167 855.755 97.75 846.588 97.75H779.338V163.75ZM797.338 186.25C800.505 186.25 802.755 185.583 804.088 184.25C805.588 182.75 806.338 180.417 806.338 177.25V120H839.338C842.005 120 844.005 120.75 845.338 122.25C846.671 123.75 847.338 125.833 847.338 128.5V177.25C847.338 180.417 848.005 182.75 849.338 184.25C850.838 185.583 853.171 186.25 856.338 186.25H894.838C898.005 186.25 900.255 185.583 901.588 184.25C903.088 182.75 903.838 180.417 903.838 177.25V106.75C903.838 96.75 901.005 88.75 895.338 82.75C889.838 76.5833 882.421 73.25 873.088 72.75L898.588 14.5C899.755 11.8333 899.838 9.83333 898.838 8.49999C897.838 6.99999 895.921 6.24999 893.088 6.24999H854.588C851.421 6.24999 848.838 6.91666 846.838 8.25C844.838 9.41666 843.255 11.5 842.088 14.5L816.338 72.75H806.338V15.25C806.338 12.0833 805.588 9.83333 804.088 8.49999C802.755 6.99999 800.505 6.24999 797.338 6.24999H758.588C755.421 6.24999 753.088 6.99999 751.588 8.49999C750.255 9.83333 749.588 12.0833 749.588 15.25V177.25C749.588 180.417 750.255 182.75 751.588 184.25C753.088 185.583 755.421 186.25 758.588 186.25H797.338ZM805.338 186.5L772.838 213.5C772.171 214.167 771.088 214.75 769.588 215.25C768.255 215.75 766.755 216 765.088 216H726.338C722.338 216 719.421 215.083 717.588 213.25C715.755 211.417 714.838 208.5 714.838 204.5V42.5C714.838 40.3333 715.088 38.5 715.588 37C716.255 35.5 717.171 34.25 718.338 33.25L750.588 6C751.421 5.33333 752.505 4.83332 753.838 4.49999C755.338 3.99999 756.921 3.75 758.588 3.75H797.338C801.338 3.75 804.255 4.66666 806.088 6.49999C807.921 8.33333 808.838 11.25 808.838 15.25V38C809.338 37.3333 809.838 36.6667 810.338 36C810.838 35.1667 811.421 34.5 812.088 34L844.338 6.74999C845.505 5.74999 846.921 4.99999 848.588 4.49999C850.421 3.99999 852.421 3.75 854.588 3.75H893.088C897.255 3.75 900.005 4.83333 901.338 7C902.671 8.99999 902.505 11.8333 900.838 15.5L876.838 70.5C885.838 71.6667 893.005 75.5 898.338 82C903.671 88.5 906.338 96.75 906.338 106.75V177.25C906.338 179.417 906.005 181.25 905.338 182.75C904.838 184.25 904.005 185.5 902.838 186.5L870.338 213.5C869.671 214.167 868.588 214.75 867.088 215.25C865.755 215.75 864.255 216 862.588 216H824.088C820.088 216 817.171 215.083 815.338 213.25C813.505 211.417 812.588 208.5 812.588 204.5V155.75C812.588 154.083 812.255 152.75 811.588 151.75C810.921 150.75 810.005 150.167 808.838 150V177.25C808.838 179.417 808.505 181.25 807.838 182.75C807.338 184.25 806.505 185.5 805.338 186.5ZM1088.76 204C1082.93 209 1074.76 212.833 1064.26 215.5C1053.76 218.333 1040.26 219.75 1023.76 219.75C1007.43 219.75 994.014 218 983.514 214.5C973.18 211.167 965.014 206.667 959.014 201C953.18 195.333 949.097 188.833 946.764 181.5C944.597 174.167 943.514 166.583 943.514 158.75V81C943.514 73.3333 944.597 66.25 946.764 59.75C948.93 53.0833 952.847 47.4167 958.514 42.75L991.014 15.75C996.847 10.75 1004.93 6.91666 1015.26 4.24999C1025.76 1.41665 1039.35 -1.60933e-05 1056.01 -1.60933e-05C1072.35 -1.60933e-05 1085.68 1.33332 1096.01 3.99999C1106.51 6.66665 1114.68 10.4167 1120.51 15.25C1126.51 19.9167 1130.6 25.5833 1132.76 32.25C1134.93 38.75 1136.01 45.9167 1136.01 53.75V139C1136.01 146.667 1134.93 153.75 1132.76 160.25C1130.6 166.75 1126.68 172.333 1121.01 177L1088.76 204ZM1133.51 139V53.75C1133.51 46.0833 1132.35 39.1667 1130.01 33C1127.85 26.6667 1123.85 21.25 1118.01 16.75C1112.35 12.25 1104.43 8.74999 1094.26 6.24999C1084.26 3.75 1071.51 2.5 1056.01 2.5C1040.51 2.5 1027.68 3.75 1017.51 6.24999C1007.35 8.74999 999.347 12.25 993.514 16.75C987.847 21.25 983.847 26.6667 981.514 33C979.347 39.1667 978.264 46.0833 978.264 53.75V139C978.264 146.667 979.347 153.667 981.514 160C983.847 166.167 987.847 171.5 993.514 176C999.347 180.333 1007.35 183.75 1017.51 186.25C1027.68 188.75 1040.51 190 1056.01 190C1071.51 190 1084.26 188.75 1094.26 186.25C1104.43 183.75 1112.35 180.333 1118.01 176C1123.85 171.5 1127.85 166.167 1130.01 160C1132.35 153.667 1133.51 146.667 1133.51 139ZM1106.26 133.25C1106.26 143.25 1102.68 151.417 1095.51 157.75C1088.35 163.917 1075.01 167 1055.51 167C1036.01 167 1022.76 163.917 1015.76 157.75C1008.76 151.417 1005.26 143.25 1005.26 133.25V59.5C1005.26 49.5 1008.76 41.4167 1015.76 35.25C1022.76 28.9167 1036.01 25.75 1055.51 25.75C1075.01 25.75 1088.35 28.9167 1095.51 35.25C1102.68 41.4167 1106.26 49.5 1106.26 59.5V133.25ZM1007.76 133.25C1007.76 142.583 1011.1 150.167 1017.76 156C1024.43 161.667 1037.01 164.5 1055.51 164.5C1074.01 164.5 1086.68 161.667 1093.51 156C1100.35 150.167 1103.76 142.583 1103.76 133.25V59.5C1103.76 50.1667 1100.35 42.6667 1093.51 37C1086.68 31.1667 1074.01 28.25 1055.51 28.25C1037.01 28.25 1024.43 31.1667 1017.76 37C1011.1 42.6667 1007.76 50.1667 1007.76 59.5V133.25ZM1035.01 130V62.75C1035.01 59.5833 1036.26 56.9167 1038.76 54.75C1041.26 52.4167 1047.01 51.25 1056.01 51.25C1065.01 51.25 1070.76 52.4167 1073.26 54.75C1075.76 56.9167 1077.01 59.5833 1077.01 62.75V130C1077.01 133.333 1075.76 136.167 1073.26 138.5C1070.76 140.667 1065.01 141.75 1056.01 141.75C1047.01 141.75 1041.26 140.667 1038.76 138.5C1036.26 136.167 1035.01 133.333 1035.01 130ZM1037.51 130C1037.51 131.667 1037.85 133.167 1038.51 134.5C1039.18 135.667 1040.43 136.667 1042.26 137.5V90C1042.26 88.3333 1041.93 86.9167 1041.26 85.75C1040.6 84.4167 1039.35 83.4167 1037.51 82.75V130ZM1253.99 219.75C1237.83 219.75 1224.49 218 1213.99 214.5C1203.66 211.167 1195.58 206.667 1189.74 201C1183.91 195.333 1179.83 188.833 1177.49 181.5C1175.33 174.167 1174.24 166.583 1174.24 158.75V42.5C1174.24 40.3333 1174.49 38.5 1174.99 37C1175.66 35.5 1176.58 34.25 1177.74 33.25L1209.99 6C1210.83 5.33333 1211.91 4.83332 1213.24 4.49999C1214.74 3.99999 1216.33 3.75 1217.99 3.75H1257.24C1261.24 3.75 1264.16 4.66666 1265.99 6.49999C1267.83 8.33333 1268.74 11.25 1268.74 15.25V129.25C1268.74 130.75 1268.99 132.167 1269.49 133.5C1269.99 134.667 1271.08 135.583 1272.74 136.25V42.5C1272.74 40.3333 1272.99 38.5 1273.49 37C1273.99 35.5 1274.74 34.3333 1275.74 33.5L1275.99 33.25L1308.49 6C1309.33 5.33333 1310.41 4.83332 1311.74 4.49999C1313.08 3.99999 1314.66 3.75 1316.49 3.75H1354.49C1358.49 3.75 1361.41 4.66666 1363.24 6.49999C1365.08 8.33333 1365.99 11.25 1365.99 15.25V139C1365.99 146.667 1364.91 153.75 1362.74 160.25C1360.58 166.75 1356.66 172.333 1350.99 177L1318.49 204C1312.66 209 1304.58 212.833 1294.24 215.5C1283.91 218.333 1270.49 219.75 1253.99 219.75ZM1363.49 139V15.25C1363.49 12.0833 1362.74 9.83333 1361.24 8.49999C1359.91 6.99999 1357.66 6.24999 1354.49 6.24999H1316.49C1313.33 6.24999 1310.99 6.99999 1309.49 8.49999C1308.16 9.83333 1307.49 12.0833 1307.49 15.25V129.25C1307.49 132.583 1306.24 135.417 1303.74 137.75C1301.24 139.917 1295.58 141 1286.74 141C1278.08 141 1272.49 139.917 1269.99 137.75C1267.49 135.417 1266.24 132.583 1266.24 129.25V15.25C1266.24 12.0833 1265.49 9.83333 1263.99 8.49999C1262.66 6.99999 1260.41 6.24999 1257.24 6.24999H1217.99C1214.83 6.24999 1212.49 6.99999 1210.99 8.49999C1209.66 9.83333 1208.99 12.0833 1208.99 15.25V139C1208.99 146.667 1210.08 153.667 1212.24 160C1214.58 166.167 1218.58 171.5 1224.24 176C1230.08 180.333 1237.99 183.75 1247.99 186.25C1257.99 188.75 1270.74 190 1286.24 190C1301.74 190 1314.49 188.75 1324.49 186.25C1334.49 183.75 1342.33 180.333 1347.99 176C1353.83 171.5 1357.83 166.167 1359.99 160C1362.33 153.667 1363.49 146.667 1363.49 139ZM1236.49 28.75H1238.99V133C1238.99 142.333 1242.24 149.917 1248.74 155.75C1255.41 161.417 1267.99 164.25 1286.49 164.25C1304.99 164.25 1317.58 161.417 1324.24 155.75C1330.91 149.917 1334.24 142.333 1334.24 133V28.75H1336.74V133C1336.74 143 1333.24 151.167 1326.24 157.5C1319.24 163.667 1305.99 166.75 1286.49 166.75C1266.99 166.75 1253.74 163.667 1246.74 157.5C1239.91 151.167 1236.49 143 1236.49 133V28.75ZM1494.42 216H1453.92C1449.92 216 1447 215.083 1445.17 213.25C1443.33 211.417 1442.42 208.5 1442.42 204.5V84.25H1408.17C1404.17 84.25 1401.25 83.3333 1399.42 81.5C1397.58 79.6667 1396.67 76.75 1396.67 72.75V42.5C1396.67 40.3333 1396.92 38.5 1397.42 37C1398.08 35.5 1399 34.25 1400.17 33.25L1432.42 6C1433.25 5.33333 1434.33 4.83332 1435.67 4.49999C1437.17 3.99999 1438.75 3.75 1440.42 3.75H1572.42C1576.42 3.75 1579.33 4.66666 1581.17 6.49999C1583 8.33333 1583.92 11.25 1583.92 15.25V45.5C1583.92 47.6667 1583.58 49.5 1582.92 51C1582.42 52.5 1581.58 53.75 1580.42 54.75L1547.92 81.75C1547.25 82.4167 1546.17 83 1544.67 83.5C1543.33 84 1541.83 84.25 1540.17 84.25H1538.17V177.25C1538.17 179.417 1537.83 181.25 1537.17 182.75C1536.67 184.25 1535.83 185.5 1534.67 186.5L1502.17 213.5C1501.5 214.167 1500.42 214.75 1498.92 215.25C1497.58 215.75 1496.08 216 1494.42 216ZM1526.67 186.25C1529.83 186.25 1532.08 185.583 1533.42 184.25C1534.92 182.75 1535.67 180.417 1535.67 177.25V54.5H1572.42C1575.58 54.5 1577.83 53.8333 1579.17 52.5C1580.67 51 1581.42 48.6667 1581.42 45.5V15.25C1581.42 12.0833 1580.67 9.83333 1579.17 8.49999C1577.83 6.99999 1575.58 6.24999 1572.42 6.24999H1440.42C1437.25 6.24999 1434.92 6.99999 1433.42 8.49999C1432.08 9.83333 1431.42 12.0833 1431.42 15.25V45.5C1431.42 48.6667 1432.08 51 1433.42 52.5C1434.92 53.8333 1437.25 54.5 1440.42 54.5H1477.17V177.25C1477.17 180.417 1477.83 182.75 1479.17 184.25C1480.67 185.583 1483 186.25 1486.17 186.25H1526.67ZM1505.17 163.75V31.25H1453.92V28.75H1558.92V31.25H1507.67V163.75H1505.17Z" fill="black"/>
</svg>
